<svg width="640" height="415" viewBox="0 0 640 415" fill="none" xmlns="http://www.w3.org/2000/svg">
<g filter="url(#filter0_d_326_712)">
<path d="M487.353 310.118C385.744 246 404.968 348.159 310.568 383.839C308.467 384.638 306.319 385.395 304.122 386.109C302.975 386.489 301.777 386.869 300.575 387.164C288.88 390.456 276.619 392.134 264.278 392.132C259.225 392.152 254.124 391.965 248.919 391.571C239.864 390.855 230.893 389.543 222.09 387.647C216.451 386.489 210.871 385.138 205.367 383.597C170.121 373.385 137.68 357.446 109.933 336.708C85.7996 318.719 66.5577 297.966 56.3192 276.847C41.7925 246.967 45.3204 216.353 78.5892 192.061C137.791 148.791 48.5107 114.644 116.352 79.1538C171.561 50.2868 193.692 105.203 268.478 80.8715C286.163 75.1031 306.781 64.9188 331.527 48.1453C353.706 28.1828 376.568 15.8667 398.854 9.62231C438.875 -1.64047 477.324 6.52185 507.714 24.6929C525.569 35.4838 540.529 49.2415 551.647 65.0951C555.304 70.2724 558.502 75.6651 561.216 81.2302C561.485 81.6825 561.704 82.1542 561.871 82.6397C573.273 106.502 575.178 132.19 563.607 153.94C718.669 237.883 591.265 375.642 487.353 310.118Z" fill="#EFEFEF"/>
<path style="mix-blend-mode:overlay" d="M416.883 226.874C401.609 234.71 383.108 236.697 365.153 237.519C344.737 238.894 324.194 237.445 304.358 233.232C290.544 229.429 277.055 224.858 263.983 219.548C242.595 211.652 220.104 205.13 196.788 203.355C173.421 201.536 148.97 204.752 129.156 215.143C99.6527 230.521 83.9091 259.314 56.3191 276.847C41.7924 246.967 45.3203 216.353 78.5891 192.061C137.791 148.791 48.5107 114.644 116.352 79.1537C171.561 50.2868 193.692 105.203 268.478 80.8715C271.905 93.9329 279.505 105.98 290.477 115.747C314.274 136.857 351.827 145.892 386.072 140.725C394.771 139.4 403.569 137.288 412.176 138.748C420.57 140.576 427.94 144.763 433.034 150.598C454.838 173.418 446.735 211.578 416.883 226.874Z" fill="url(#paint0_linear_326_712)"/>
<path d="M54.2083 258.345C56.3049 260.908 57.6883 263.827 58.2579 266.892C58.8275 269.956 58.5691 273.088 57.5014 276.061C53.234 291.617 82.0381 276.694 91.6668 294.016C101.214 311.224 97.1088 319.561 108.661 325.285C120.214 331.009 140.284 323.2 175.833 374.155C181.919 377.18 171.501 391.785 165.309 388.733C119.613 389.606 86.6423 385.826 86.5319 367.518C86.4511 356.569 80.4963 351.283 71.2371 347.358C65.1788 344.632 57.593 342.564 49.4061 339.77C28.8251 332.755 38.6552 316.237 39.8213 303.276C40.9874 290.316 7.08535 291.3 12.823 276.363C18.4505 261.405 20.2766 251.967 35.5587 251.656C39.0879 251.443 42.6253 251.941 45.8721 253.105C49.1188 254.269 51.9793 256.067 54.2119 258.345L54.2083 258.345Z" fill="#CBD5F7"/>
<path d="M177.318 384.79C177.011 385.219 176.529 385.542 175.96 385.701C175.391 385.86 174.773 385.844 174.217 385.656C169.47 384.044 57.7035 345.409 36.4865 277.03C36.4019 276.765 36.3815 276.488 36.4262 276.215C36.471 275.943 36.5801 275.681 36.7472 275.444C36.9143 275.206 37.1362 274.999 37.4001 274.833C37.664 274.667 37.9647 274.547 38.2848 274.478C38.6049 274.409 38.9381 274.393 39.2653 274.432C39.5925 274.471 39.9072 274.563 40.1912 274.703C40.4752 274.843 40.723 275.028 40.9203 275.249C41.1176 275.469 41.2604 275.719 41.3407 275.986C61.9257 342.33 174.975 381.408 176.117 381.793C176.422 381.897 176.7 382.049 176.933 382.242C177.167 382.434 177.353 382.663 177.48 382.916C177.607 383.168 177.673 383.439 177.674 383.713C177.675 383.987 177.611 384.258 177.486 384.512C177.439 384.608 177.383 384.701 177.318 384.79Z" fill="white"/>
<path d="M178.685 211.18C181.323 217.629 183.117 224.296 184.035 231.066C188.112 255.708 167.161 246.231 180.086 252.001C193.096 257.814 157.47 273.521 163.082 282.23C163.821 283.207 164.852 284.008 166.075 284.555C167.298 285.102 168.67 285.377 170.06 285.352L170.141 285.395C177.402 286.137 188.245 284.2 197.191 287.058C198.006 287.28 198.785 287.584 199.51 287.963C203.256 289.544 206.302 292.069 208.214 295.178C212.811 302.245 208.065 309.254 200.15 317.423C196.017 321.652 190.99 326.259 186.013 331.384C185.486 331.866 184.995 332.374 184.544 332.906C182.712 334.703 180.995 336.578 179.4 338.524C176.641 341.468 174.155 344.581 171.962 347.837C171.087 349.204 170.216 350.571 169.367 352.051C169.088 352.419 168.852 352.808 168.66 353.212C167.36 355.453 166.235 357.76 165.289 360.119C164.604 361.748 164.007 363.402 163.5 365.076C163.002 366.598 162.284 368.066 161.364 369.446C160.932 370.269 160.323 371.019 159.567 371.661C158.779 372.373 157.731 372.851 156.586 373.021C155.685 373.161 154.757 373.113 153.885 372.88C152.426 372.53 151.058 371.961 149.845 371.203C149.767 371.147 149.705 371.077 149.661 371L149.576 370.954C146.919 368.879 127.44 353.098 121.987 332.179C121.7 330.942 121.222 329.794 120.879 328.627C116.676 319.049 107.309 313.808 97.8877 308.926C95.7105 307.709 93.4748 306.556 91.2939 305.335C87.1372 303.117 83.3194 300.488 79.9237 297.506C77.7577 295.481 75.9698 293.196 74.6197 290.729C73.7744 289.28 73.0701 287.776 72.5137 286.233C72.302 285.624 72.1713 285.063 71.9859 284.57C70.6964 279.65 72.8974 277.658 76.8698 277.246C88.6575 275.734 115.807 287.413 118.296 278.552C120.814 269.514 102.214 267.991 89.3902 262.672C83.8693 260.364 79.4613 257.405 78.2503 252.823C74.3547 237.656 96.3448 244.689 107.336 221.154C118.326 197.62 100.098 180.583 111.525 168.813C123.084 157.018 125.515 204.959 130.104 193.659C134.744 182.295 143.325 191.684 145.218 203.388C147.246 215.071 142.135 228.029 156.814 210.073C166.835 198.007 173.949 200.519 178.689 211.18L178.685 211.18Z" fill="#C4CCF2"/>
<path d="M97.6618 295.647C98.6751 294.866 100.537 294.239 103.819 295.568C107.86 297.214 111.617 299.302 114.992 301.775C115.985 302.503 116.946 303.262 117.911 304.026C119.965 305.786 122.248 307.35 124.718 308.69C129.651 310.965 135.351 311.825 140.936 311.138C141.972 308.821 142.847 306.457 143.557 304.057C145.658 294.228 143.923 284.103 138.604 275.161C136.613 271.507 134.369 267.952 131.883 264.513C128.86 265.027 125.741 265.005 122.731 264.45C118.681 263.206 115.114 261.075 112.406 258.282C111.706 257.69 111.018 257.092 110.311 256.521C107.319 254.106 103.908 252.077 100.192 250.502C98.7142 249.873 96.7308 249.412 95.9595 250.131C95.6749 250.404 95.2718 250.572 94.8387 250.598C94.4056 250.624 93.978 250.506 93.6501 250.27C93.3221 250.034 93.1206 249.699 93.09 249.339C93.0593 248.98 93.2019 248.624 93.4864 248.351C95.2117 246.691 98.202 246.597 101.69 248.077C105.694 249.775 109.369 251.963 112.593 254.566C113.325 255.152 114.04 255.768 114.761 256.387C117.085 258.817 120.139 260.693 123.616 261.826C125.718 262.222 127.892 262.274 130.02 261.98C128.178 259.487 126.304 257.018 124.431 254.595C122.992 252.734 121.553 250.87 120.144 249C117.873 246.286 116.162 243.276 115.081 240.093C113.186 233.297 116.568 226.607 120.504 219.784C120.692 219.457 121.029 219.206 121.439 219.086C121.85 218.966 122.301 218.986 122.693 219.142C123.086 219.298 123.387 219.577 123.531 219.919C123.676 220.26 123.651 220.635 123.462 220.961C119.785 227.329 116.625 233.539 118.275 239.477C119.277 242.364 120.848 245.093 122.923 247.552C124.325 249.416 125.76 251.265 127.191 253.12C130.452 257.346 133.75 261.682 136.763 266.159C138.151 265.411 139.347 264.44 140.278 263.304C141.21 262.167 141.86 260.888 142.189 259.54C142.564 257.385 142.66 255.202 142.474 253.031L142.42 251.469C142.168 248.473 142.716 245.466 144.025 242.664C145.585 240.005 148.004 237.758 151.012 236.176C152.059 235.63 153.155 235.151 154.29 234.745C155.872 234.276 157.316 233.533 158.527 232.565C158.653 232.42 158.812 232.297 158.996 232.202C159.179 232.108 159.383 232.045 159.596 232.016C159.808 231.987 160.026 231.994 160.235 232.035C160.445 232.076 160.643 232.151 160.817 232.256C160.992 232.36 161.14 232.492 161.253 232.645C161.366 232.797 161.442 232.966 161.476 233.143C161.51 233.32 161.502 233.5 161.453 233.675C161.403 233.849 161.312 234.013 161.186 234.159C159.673 235.541 157.774 236.591 155.658 237.219C154.692 237.559 153.758 237.96 152.866 238.419C150.359 239.724 148.334 241.579 147.017 243.78C145.907 246.211 145.457 248.814 145.701 251.404L145.751 252.938C145.947 255.305 145.834 257.683 145.413 260.031C144.999 261.777 144.165 263.436 142.96 264.908C141.756 266.38 140.207 267.636 138.405 268.599C139.543 270.387 140.614 272.204 141.601 274.051C147.211 283.526 149.016 294.251 146.752 304.651C145.951 307.367 144.957 310.042 143.775 312.66C143.747 312.813 143.685 312.96 143.593 313.094C141.744 316.845 140.585 320.805 140.155 324.841C140.112 326.159 140.196 327.477 140.405 328.784C142.852 327.423 145.493 326.321 148.267 325.504L149.967 324.939C159.37 322.059 167.424 316.758 172.954 309.81C173.728 308.736 174.421 307.608 175.113 306.48C176.691 303.428 178.994 300.672 181.884 298.377C182.047 298.251 182.238 298.155 182.447 298.093C182.656 298.031 182.878 298.005 183.099 298.016C183.321 298.027 183.537 298.076 183.735 298.158C183.933 298.241 184.109 298.356 184.251 298.497C184.394 298.638 184.501 298.801 184.566 298.977C184.63 299.154 184.651 299.339 184.627 299.522C184.603 299.705 184.535 299.883 184.426 300.043C184.318 300.204 184.171 300.345 183.995 300.457C181.448 302.526 179.421 304.994 178.032 307.719C177.303 308.896 176.573 310.076 175.771 311.202C171.351 317.023 165.131 321.751 157.761 324.889C155.632 325.845 153.443 326.704 151.203 327.462L149.47 328.036C146.461 328.845 143.649 330.09 141.162 331.714C141.104 331.749 141.043 331.78 140.979 331.807C141.337 333.315 141.747 334.814 142.175 336.294L146.514 351.221C147.381 354.661 148.614 358.029 150.198 361.287C152.283 365.169 155.363 368.624 159.224 371.412C163.084 374.2 167.631 376.253 172.548 377.428C172.759 377.474 172.957 377.554 173.13 377.664C173.303 377.774 173.448 377.912 173.557 378.07C173.665 378.227 173.734 378.401 173.761 378.581C173.787 378.761 173.77 378.943 173.71 379.118C173.651 379.293 173.55 379.456 173.414 379.598C173.277 379.739 173.108 379.857 172.917 379.944C172.725 380.031 172.514 380.085 172.297 380.104C172.08 380.122 171.86 380.105 171.652 380.052C166.272 378.767 161.297 376.52 157.073 373.47C152.849 370.419 149.478 366.638 147.197 362.391C145.532 358.986 144.237 355.463 143.327 351.866L138.992 336.939C137.607 332.973 136.895 328.866 136.877 324.735C137.198 321.075 138.161 317.473 139.733 314.043C133.927 314.471 128.105 313.42 123.04 311.03C120.356 309.587 117.876 307.9 115.644 306C114.723 305.257 113.783 304.53 112.824 303.821C109.671 301.507 106.158 299.555 102.379 298.017C100.942 297.434 100.153 297.437 99.9009 297.639C99.5827 297.886 99.1596 298.019 98.7246 298.007C98.2896 297.995 97.8785 297.839 97.5815 297.575C97.2846 297.311 97.1263 296.96 97.1413 296.598C97.1564 296.237 97.3436 295.895 97.6618 295.647Z" fill="#FEFEFE"/>
<path d="M196.395 277.042C197.884 278.309 198.988 279.853 199.615 281.546C200.243 283.239 200.377 285.032 200.005 286.778C199.885 287.186 199.719 287.584 199.51 287.967C198 291.039 195.147 293.524 191.524 294.922C181.415 299.422 200.832 304.428 195.061 314.869C194.927 315.184 194.708 315.45 194.624 315.698C189.814 323.943 184.855 326.442 184.448 330.997C184.333 331.633 184.366 332.281 184.544 332.906C184.532 333.118 184.557 333.329 184.62 333.534C185.303 336.456 187.852 338.956 189.523 343.701C191.134 349.266 191.168 355.067 189.624 360.649C188.379 366.598 186.504 372.444 184.021 378.12C184.365 379.583 182.384 380.719 179.924 381.296C178.979 381.547 177.996 381.686 177.005 381.711C176.733 381.754 176.598 381.776 176.436 381.689C176.204 381.721 175.967 381.72 175.735 381.685C175.045 381.744 174.348 381.651 173.714 381.417C173.081 381.182 172.532 380.814 172.123 380.349C172.042 380.303 172.016 380.191 171.989 380.078C171.909 380.032 171.882 379.92 171.856 379.807C170.516 378.568 169.171 377.329 167.911 376.132C165.649 373.958 163.466 371.729 161.364 369.446C151.469 358.927 146.395 350.133 150.298 344.307C150.539 343.893 150.821 343.496 151.141 343.121C151.649 342.617 152.194 342.139 152.772 341.69C155.226 340.136 157.035 337.985 157.948 335.537C158.86 333.09 158.83 330.467 157.862 328.036C157.634 327.079 157.342 326.133 156.988 325.203L155.95 322.572C155.179 320.773 154.302 318.818 153.479 316.794C149.471 306.544 161.561 303.643 169.154 299.2C169.344 299.11 169.59 298.954 169.776 298.865C174.444 296.009 170.997 290.271 170.14 285.395L170.06 285.352C169.567 282.341 169.908 279.604 173.994 278.181C184.341 274.398 190.303 271.388 196.395 277.042Z" fill="#EFEFEF"/>
<path d="M178.753 382.811C178.398 382.862 178.033 382.806 177.724 382.653C177.415 382.5 177.182 382.26 177.069 381.976C176.101 379.549 153.666 322.139 182.845 287.344C183.079 287.084 183.426 286.91 183.811 286.858C184.197 286.806 184.591 286.881 184.911 287.067C185.231 287.253 185.452 287.534 185.526 287.853C185.6 288.172 185.523 288.502 185.309 288.774C157.003 322.528 179.69 380.599 179.924 381.184C180.049 381.498 180.019 381.841 179.84 382.138C179.661 382.434 179.347 382.659 178.969 382.764C178.898 382.784 178.826 382.8 178.753 382.811Z" fill="white"/>
<g opacity="0.1">
<path fill-rule="evenodd" clip-rule="evenodd" d="M353.177 139.278C353.505 139.277 353.83 139.221 354.133 139.116C354.436 139.01 354.711 138.856 354.943 138.661C355.174 138.467 355.357 138.237 355.482 137.984C355.606 137.732 355.669 137.461 355.667 137.188L355.591 118.285L410.689 86.5269L433.227 86.4362C433.891 86.4335 434.526 86.2118 434.994 85.8199C435.462 85.4279 435.723 84.8978 435.721 84.3461C435.719 83.7945 435.453 83.2665 434.982 82.8783C434.511 82.4901 433.874 82.2735 433.21 82.2762L409.898 82.3701C409.392 82.3719 408.899 82.5016 408.483 82.7417L351.668 115.492C351.334 115.684 351.062 115.941 350.874 116.24C350.686 116.54 350.588 116.873 350.589 117.21L350.67 137.208C350.67 137.481 350.736 137.752 350.862 138.004C350.989 138.256 351.174 138.484 351.408 138.677C351.641 138.869 351.917 139.021 352.222 139.124C352.526 139.227 352.852 139.28 353.181 139.278L353.177 139.278ZM270.957 139.841C270.945 140.12 271.002 140.399 271.123 140.66C271.243 140.921 271.427 141.159 271.661 141.36C271.895 141.561 272.176 141.72 272.486 141.828C272.796 141.936 273.13 141.992 273.467 141.99C273.803 141.989 274.136 141.931 274.446 141.82C274.755 141.709 275.034 141.548 275.267 141.345C275.5 141.143 275.681 140.903 275.8 140.641C275.919 140.379 275.973 140.1 275.959 139.821L275.913 128.46C275.912 128.187 275.846 127.917 275.719 127.665C275.592 127.413 275.406 127.185 275.173 126.993L256.017 111.201C255.784 111.009 255.508 110.857 255.204 110.753C254.9 110.65 254.575 110.597 254.246 110.598L198.977 110.821C198.313 110.824 197.678 111.045 197.21 111.437C196.742 111.829 196.481 112.359 196.483 112.911C196.485 113.463 196.751 113.991 197.222 114.379C197.693 114.767 198.33 114.984 198.994 114.981L253.228 114.763L270.915 129.34L270.957 139.841ZM465.132 211.119L435.747 211.238L414.077 193.379C413.608 192.991 412.972 192.774 412.31 192.776L387.658 192.875C387.012 192.899 386.401 193.129 385.954 193.518C385.506 193.908 385.258 194.426 385.26 194.964C385.262 195.501 385.515 196.017 385.965 196.403C386.416 196.789 387.028 197.014 387.675 197.032L411.288 196.937L432.958 214.799C433.191 214.991 433.467 215.144 433.771 215.247C434.075 215.35 434.401 215.403 434.729 215.402L465.149 215.279C465.813 215.277 466.448 215.055 466.916 214.663C467.384 214.271 467.645 213.741 467.643 213.189C467.641 212.638 467.375 212.11 466.904 211.721C466.433 211.333 465.796 211.117 465.132 211.119ZM241.911 220.399L217.509 220.497C217.015 220.499 216.531 220.622 216.121 220.852C215.71 221.081 215.391 221.407 215.203 221.787L201.487 249.383L179.669 249.471C179.005 249.474 178.369 249.696 177.902 250.088C177.434 250.48 177.172 251.01 177.175 251.561C177.177 252.113 177.443 252.641 177.914 253.029C178.384 253.417 179.022 253.634 179.686 253.631L203.174 253.537C203.668 253.535 204.151 253.412 204.562 253.182C204.973 252.953 205.292 252.627 205.48 252.246L219.192 224.651L241.931 224.559C242.595 224.556 243.231 224.335 243.698 223.943C244.166 223.551 244.428 223.021 244.426 222.469C244.423 221.917 244.158 221.389 243.687 221.001C243.216 220.613 242.578 220.396 241.915 220.399L241.911 220.399ZM488.257 81.5392C488.269 84.7719 489.434 87.9275 491.606 90.607C493.777 93.2865 496.856 95.3695 500.454 96.5926C504.052 97.8156 508.007 98.1238 511.82 97.4782C515.632 96.8325 519.13 95.262 521.871 92.9653C524.612 90.6685 526.474 87.7488 527.22 84.5751C527.967 81.4015 527.564 78.1167 526.064 75.136C524.564 72.1553 522.033 69.6126 518.792 67.8296C515.551 66.0466 511.745 65.1032 507.855 65.1189C502.641 65.1399 497.646 66.8815 493.971 69.9609C490.296 73.0402 488.24 77.205 488.257 81.5392Z" fill="black"/>
<path fill-rule="evenodd" clip-rule="evenodd" d="M554.912 81.2556C554.89 75.7976 553.488 70.406 550.797 65.4309L551.647 65.095C540.529 49.2414 525.57 35.4838 507.715 24.6929L507.786 42.4034C502.126 42.4285 496.518 43.311 491.236 45.0075L482.961 26.7871C468.306 31.4606 455.932 40.0542 447.792 51.2121C443.409 57.1676 440.352 63.7289 438.766 70.5818L455.282 73.1748L461.741 74.1858C460.346 80.3281 460.731 86.6559 462.864 92.6454L458.168 93.7867C461.331 102.629 467.811 110.396 476.664 115.955L479.652 112.658C483.086 114.814 486.865 116.562 490.88 117.853L489.097 121.685C496.455 124.059 504.37 125.004 512.24 124.446C520.109 123.888 527.723 121.843 534.501 118.467L531.937 114.94C536.996 112.432 541.445 109.157 545.053 105.286L550.671 108.88C557.713 101.365 561.642 92.1601 561.871 82.6427C561.952 82.174 561.983 81.7003 561.964 81.2272L554.912 81.2556ZM524.091 103.998L522.18 101.343C518.529 103.123 514.444 104.199 510.227 104.49C506.01 104.781 501.771 104.28 497.821 103.024L496.435 105.939C493.744 105.069 491.213 103.889 488.917 102.434L491.16 99.9733C486.429 96.9791 482.962 92.8154 481.256 88.0789L477.608 88.9689C476.729 86.5718 476.28 84.0793 476.276 81.5721L464.974 81.6176C464.953 72.154 469.451 63.0647 477.48 56.3445C485.509 49.6244 496.413 45.8226 507.799 45.7735L507.837 55.1671C514.771 55.1368 521.521 57.0028 527.046 60.4775C532.572 63.9521 536.566 68.8425 538.414 74.3949C540.262 79.9473 539.86 85.8534 537.272 91.2029C534.683 96.5524 530.05 101.048 524.088 103.998L524.091 103.998ZM178.347 137.115L178.372 137.115C179.809 136.942 181.139 136.384 182.162 135.527C183.185 134.67 183.845 133.56 184.041 132.364L183.852 85.3539C183.848 84.3429 183.361 83.3751 182.497 82.6636C181.634 81.9521 180.466 81.5552 179.25 81.5601L149.454 81.68C146.915 81.6903 143.334 83.7878 143.339 85.8983L143.339 85.9044C143.303 86.0859 143.286 86.2696 143.286 86.4536L143.476 133.464C143.482 134.476 143.97 135.443 144.835 136.155C145.699 136.866 146.868 137.263 148.085 137.258L177.884 137.138C178.04 137.138 178.196 137.13 178.35 137.115L178.347 137.115ZM536.214 233.003L531.606 231.484C531.726 230.28 531.722 229.07 531.591 227.867L536.135 226.269C537.213 225.881 538.066 225.157 538.511 224.254C538.957 223.35 538.96 222.338 538.519 221.434L536.248 216.997C535.992 216.509 535.613 216.072 535.137 215.715C534.661 215.358 534.099 215.09 533.488 214.928C532.601 214.711 531.653 214.745 530.791 215.024C530.74 214.982 530.641 215.064 530.538 215.107L525.994 216.663C525.028 215.749 523.971 214.906 522.832 214.141L524.769 210.306C524.938 209.89 525.036 209.456 525.061 209.017C525.069 208.28 524.815 207.556 524.333 206.938C523.85 206.319 523.159 205.831 522.346 205.536L516.938 203.771C516.164 203.5 515.309 203.43 514.486 203.57C513.633 203.687 512.847 204.025 512.24 204.537C511.912 204.743 511.653 205.016 511.491 205.33C511.362 205.468 511.261 205.623 511.192 205.789L510.1 207.913L509.306 209.578C507.843 209.439 506.365 209.445 504.903 209.596L503.039 205.821C502.666 205.057 501.992 204.42 501.128 204.016C500.263 203.612 499.258 203.464 498.278 203.596C498.087 203.633 497.902 203.689 497.728 203.763C497.575 203.776 497.425 203.806 497.281 203.85L491.931 205.741C490.863 206.115 490.016 206.823 489.571 207.712C489.126 208.601 489.12 209.599 489.554 210.49L491.47 214.264C491.24 214.435 491.023 214.618 490.819 214.81C489.959 215.454 489.159 216.151 488.427 216.896L483.82 215.378C482.992 215.075 482.068 215.002 481.185 215.171C480.302 215.339 479.508 215.739 478.921 216.313C478.593 216.623 478.324 216.974 478.125 217.353L475.941 221.814C475.725 222.257 475.616 222.731 475.621 223.209C475.626 223.687 475.744 224.159 475.968 224.598C476.193 225.038 476.52 225.436 476.931 225.77C477.341 226.104 477.827 226.367 478.36 226.544L482.917 228.145C482.822 229.35 482.826 230.559 482.931 231.763L482.484 231.889L478.439 233.36C477.362 233.737 476.507 234.452 476.061 235.35C475.615 236.248 475.614 237.255 476.059 238.152L478.326 242.593C478.625 243.175 479.101 243.683 479.707 244.066C480.313 244.45 481.029 244.696 481.784 244.781L481.835 244.738C482.578 244.854 483.346 244.779 484.036 244.522L488.58 242.967C488.834 243.216 489.084 243.422 489.283 243.629C490.09 244.247 490.892 244.912 491.742 245.488L489.857 249.281C489.631 249.726 489.515 250.204 489.515 250.687C489.515 251.17 489.631 251.648 489.857 252.093C490.083 252.538 490.414 252.94 490.829 253.277C491.245 253.614 491.738 253.878 492.279 254.053L497.637 255.862C498.365 256.112 499.166 256.181 499.942 256.06L499.99 256.06C500.72 255.968 501.409 255.719 501.987 255.336C502.565 254.954 503.012 254.452 503.283 253.881L505.216 250.052C506.663 250.184 508.123 250.191 509.572 250.074L509.923 250.697L511.488 253.766C511.699 254.207 512.018 254.607 512.423 254.942C512.828 255.276 513.312 255.538 513.844 255.711C514.374 255.921 514.953 256.033 515.541 256.038C516.128 256.043 516.71 255.941 517.246 255.74L522.64 253.888C523.698 253.495 524.529 252.773 524.955 251.878C525.382 250.983 525.372 249.985 524.925 249.097L523.009 245.323C524.138 244.53 525.173 243.648 526.099 242.69L529.204 243.758L530.707 244.294C531.605 244.577 532.587 244.615 533.513 244.402C534.439 244.188 535.259 243.735 535.854 243.109C536.083 242.845 536.283 242.566 536.453 242.274L538.636 237.775C539.065 236.874 539.051 235.869 538.598 234.977C538.145 234.084 537.289 233.376 536.214 233.003ZM512.476 238.421C512.274 238.507 512.025 238.63 511.776 238.716C509.366 239.572 506.68 239.727 504.154 239.156C501.628 238.585 499.408 237.321 497.856 235.57C497.335 234.963 496.897 234.31 496.549 233.623C495.942 232.45 495.622 231.187 495.605 229.909C495.589 228.632 495.878 227.363 496.454 226.178C497.031 224.992 497.884 223.913 498.965 223.003C500.046 222.093 501.332 221.369 502.751 220.874C504.283 220.335 505.936 220.073 507.598 220.104C508.925 220.13 510.234 220.365 511.454 220.796C512.929 221.246 514.275 221.945 515.406 222.85C516.538 223.755 517.431 224.845 518.029 226.052C519.178 228.311 519.244 230.851 518.211 233.151C517.178 235.451 515.126 237.336 512.476 238.421ZM563.209 190.778L559.851 189.669C559.947 188.783 559.943 187.892 559.84 187.007L563.189 185.831C563.977 185.544 564.599 185.013 564.923 184.351C565.247 183.689 565.248 182.948 564.925 182.286L563.261 179.054C563.073 178.689 562.792 178.362 562.435 178.097C562.079 177.833 561.657 177.636 561.2 177.522C560.564 177.353 559.878 177.371 559.255 177.573C559.2 177.573 559.101 177.613 559.053 177.613L555.704 178.792C555.011 178.109 554.238 177.486 553.396 176.931L554.786 174.098C554.939 173.809 555.022 173.498 555.032 173.182C555.038 172.637 554.851 172.102 554.493 171.646C554.136 171.189 553.624 170.83 553.022 170.613L549.065 169.296C548.492 169.113 547.867 169.073 547.266 169.182C546.646 169.282 546.074 169.529 545.618 169.893C545.385 170.051 545.198 170.251 545.07 170.478C544.973 170.576 544.905 170.691 544.869 170.814L544.075 172.351L543.478 173.561C542.412 173.503 541.341 173.508 540.275 173.574L538.866 170.835C538.599 170.276 538.112 169.809 537.485 169.51C536.857 169.211 536.126 169.097 535.41 169.187C535.273 169.221 535.138 169.262 535.007 169.31C534.884 169.314 534.764 169.344 534.659 169.397L530.712 170.785C529.925 171.059 529.299 171.582 528.974 172.238C528.648 172.894 528.649 173.63 528.976 174.285L530.385 177.024C530.224 177.138 530.075 177.263 529.939 177.398C529.303 177.882 528.703 178.399 528.143 178.945L524.789 177.836C524.178 177.626 523.504 177.579 522.859 177.7C522.214 177.822 521.63 178.107 521.188 178.516C520.943 178.754 520.741 179.021 520.589 179.308L519.003 182.556C518.836 182.881 518.749 183.23 518.748 183.583C518.747 183.936 518.831 184.286 518.996 184.611C519.16 184.936 519.402 185.23 519.706 185.476C520.01 185.722 520.371 185.914 520.767 186.042L524.125 187.193C524.029 188.078 524.033 188.968 524.136 189.853L523.784 189.979L520.787 191.031C520.003 191.308 519.381 191.831 519.056 192.486C518.731 193.141 518.729 193.875 519.051 194.53L520.715 197.808C520.933 198.24 521.283 198.617 521.732 198.9C522.181 199.183 522.712 199.363 523.272 199.421L523.323 199.42C523.865 199.489 524.42 199.428 524.923 199.246L528.268 198.071C528.471 198.277 528.622 198.402 528.773 198.566C529.373 199.021 529.977 199.519 530.576 199.931L529.189 202.721C528.873 203.379 528.881 204.113 529.211 204.766C529.541 205.418 530.167 205.935 530.954 206.206L534.911 207.563C535.457 207.726 536.044 207.766 536.614 207.681L536.662 207.723C537.195 207.643 537.694 207.451 538.113 207.165C538.532 206.879 538.856 206.51 539.056 206.091L540.446 203.258C541.525 203.372 542.615 203.382 543.697 203.288L543.949 203.744L545.059 206.027C545.221 206.349 545.461 206.64 545.763 206.881C546.066 207.123 546.425 207.31 546.818 207.432C547.206 207.592 547.631 207.677 548.063 207.683C548.495 207.688 548.924 207.614 549.317 207.465L553.264 206.116C554.042 205.823 554.654 205.29 554.969 204.63C555.284 203.97 555.278 203.234 554.952 202.578L553.539 199.796C554.36 199.233 555.111 198.604 555.781 197.917L558.037 198.655L559.187 199.069C559.84 199.273 560.553 199.302 561.227 199.149C561.9 198.997 562.499 198.672 562.938 198.221C563.105 198.008 563.254 197.785 563.383 197.554L565.021 194.263C565.323 193.599 565.303 192.865 564.964 192.214C564.626 191.564 563.997 191.049 563.209 190.778ZM545.817 194.755C545.667 194.841 545.465 194.881 545.315 194.964C543.537 195.59 541.557 195.701 539.696 195.279C537.834 194.856 536.199 193.926 535.053 192.636C534.693 192.186 534.373 191.715 534.093 191.228C533.647 190.365 533.411 189.436 533.399 188.496C533.387 187.556 533.599 186.623 534.024 185.752C534.449 184.88 535.078 184.087 535.873 183.418C536.669 182.749 537.617 182.218 538.661 181.855C539.792 181.487 540.996 181.3 542.211 181.301C543.849 181.377 545.43 181.826 546.782 182.597C548.134 183.369 549.206 184.434 549.879 185.677C550.723 187.334 550.771 189.197 550.016 190.885C549.26 192.573 547.756 193.957 545.813 194.755L545.817 194.755ZM578.833 232.499L576.279 231.68C576.376 231.016 576.374 230.345 576.271 229.682L578.766 228.8C579.059 228.698 579.324 228.549 579.548 228.362C579.771 228.175 579.948 227.953 580.068 227.709C580.188 227.465 580.249 227.204 580.247 226.941C580.246 226.677 580.182 226.417 580.059 226.174L578.845 223.727C578.707 223.455 578.495 223.212 578.225 223.019C577.956 222.825 577.637 222.686 577.292 222.611C576.818 222.481 576.304 222.497 575.843 222.657C575.791 222.617 575.74 222.657 575.692 222.7L573.193 223.543C572.688 223.036 572.117 222.578 571.489 222.177L572.53 220.053C572.626 219.826 572.675 219.586 572.674 219.345C572.701 218.94 572.575 218.539 572.314 218.197C572.053 217.855 571.669 217.59 571.217 217.439L568.262 216.453C567.83 216.324 567.362 216.296 566.912 216.373C566.443 216.429 566.008 216.606 565.666 216.878C565.493 217.005 565.356 217.162 565.264 217.337C565.165 217.377 565.166 217.46 565.119 217.588L564.521 218.753L564.074 219.63C563.274 219.591 562.473 219.595 561.674 219.639L560.612 217.606C560.41 217.186 560.042 216.834 559.569 216.609C559.096 216.384 558.545 216.299 558.006 216.366C557.958 216.409 557.808 216.41 557.709 216.453C557.606 216.453 557.559 216.496 557.456 216.536L554.561 217.545C553.973 217.755 553.505 218.146 553.255 218.636C553.005 219.126 552.993 219.677 553.221 220.174L554.279 222.243C554.181 222.329 554.03 222.412 553.932 222.498C553.482 222.872 553.032 223.249 552.586 223.665L550.08 222.846C549.633 222.675 549.131 222.632 548.651 222.724C548.171 222.816 547.742 223.037 547.429 223.353C547.235 223.522 547.084 223.72 546.984 223.938L545.794 226.352C545.67 226.595 545.606 226.857 545.605 227.121C545.604 227.385 545.666 227.646 545.788 227.89C545.91 228.134 546.089 228.355 546.315 228.54C546.54 228.725 546.809 228.871 547.103 228.97L549.609 229.832C549.537 230.496 549.539 231.163 549.617 231.827L549.364 231.91L547.118 232.712C546.539 232.916 546.079 233.301 545.838 233.785C545.597 234.268 545.594 234.81 545.83 235.294L547.087 237.741C547.243 238.067 547.503 238.35 547.839 238.561C548.174 238.772 548.574 238.903 548.993 238.938C549.105 238.973 549.225 238.987 549.345 238.98C549.639 238.967 549.928 238.909 550.196 238.808L552.691 237.969L553.096 238.3C553.545 238.673 553.998 239.004 554.447 239.331L553.406 241.415C553.282 241.659 553.218 241.92 553.218 242.185C553.217 242.449 553.279 242.71 553.402 242.954C553.524 243.198 553.703 243.419 553.93 243.604C554.156 243.789 554.424 243.935 554.719 244.033L557.673 245.015C558.059 245.176 558.501 245.219 558.922 245.135L558.973 245.135C559.373 245.08 559.748 244.94 560.063 244.727C560.377 244.514 560.62 244.237 560.766 243.923L561.811 241.839C562.609 241.919 563.417 241.916 564.214 241.829L564.414 242.204L565.272 243.905C565.386 244.146 565.562 244.362 565.787 244.541C566.012 244.719 566.281 244.854 566.575 244.937C566.862 245.056 567.176 245.121 567.497 245.127C567.817 245.133 568.135 245.08 568.429 244.972L571.375 243.963C571.954 243.736 572.406 243.333 572.636 242.836C572.866 242.34 572.858 241.789 572.612 241.298L571.605 239.265C572.217 238.83 572.769 238.34 573.251 237.804L574.956 238.419L575.804 238.666C576.291 238.828 576.827 238.853 577.333 238.738C577.839 238.624 578.285 238.375 578.605 238.029C578.732 237.882 578.848 237.729 578.952 237.57L580.142 235.113C580.375 234.621 580.369 234.073 580.124 233.585C579.88 233.097 579.417 232.708 578.833 232.499ZM565.836 235.461C565.709 235.526 565.575 235.582 565.437 235.63C564.669 235.92 563.839 236.077 562.996 236.093C562.153 236.109 561.316 235.982 560.534 235.721C559.752 235.46 559.043 235.07 558.448 234.574C557.853 234.078 557.386 233.487 557.074 232.837C556.737 232.192 556.559 231.498 556.549 230.795C556.539 230.092 556.698 229.394 557.017 228.742C557.336 228.091 557.807 227.498 558.405 227C559.002 226.501 559.713 226.106 560.495 225.838C561.318 225.55 562.208 225.418 563.099 225.453C563.838 225.45 564.569 225.575 565.247 225.819C566.064 226.058 566.81 226.441 567.434 226.94C568.057 227.439 568.544 228.045 568.862 228.714C569.483 229.947 569.515 231.331 568.953 232.584C568.392 233.838 567.277 234.867 565.836 235.464L565.836 235.461ZM94.1521 238.689C93.3514 238.693 92.559 238.827 91.8203 239.085C91.0817 239.342 90.4111 239.719 89.847 240.192C89.2829 240.665 88.8362 241.225 88.5326 241.841C88.229 242.458 88.0744 243.117 88.0776 243.783L88.1598 264.217C88.1652 265.56 88.8125 266.846 89.9594 267.792C91.1062 268.737 92.6586 269.265 94.2751 269.258C95.8916 269.252 97.4397 268.712 98.5789 267.757C99.7181 266.802 100.355 265.511 100.35 264.168L100.267 243.734C100.265 243.068 100.105 242.41 99.7967 241.796C99.4881 241.182 99.037 240.625 98.4691 240.157C97.9012 239.688 97.2276 239.318 96.4869 239.066C95.7461 238.814 94.9528 238.686 94.1521 238.689ZM116.229 219.895C114.613 219.902 113.064 220.442 111.925 221.396C110.786 222.351 110.149 223.642 110.155 224.986L110.293 259.449C110.299 260.793 110.946 262.079 112.093 263.025C113.241 263.971 114.793 264.498 116.41 264.492C118.027 264.485 119.576 263.945 120.715 262.99C121.855 262.035 122.492 260.744 122.487 259.4L122.348 224.937C122.345 224.271 122.185 223.613 121.876 222.999C121.567 222.386 121.115 221.829 120.547 221.361C119.979 220.893 119.305 220.522 118.564 220.271C117.823 220.019 117.03 219.892 116.229 219.895ZM138.49 246.785C136.875 246.793 135.328 247.332 134.19 248.286C133.052 249.24 132.415 250.53 132.419 251.873L132.468 264.041C132.473 265.385 133.121 266.671 134.268 267.616C135.415 268.562 136.967 269.089 138.583 269.083C140.2 269.076 141.748 268.536 142.887 267.582C144.026 266.627 144.663 265.336 144.658 263.992L144.609 251.823C144.606 251.158 144.445 250.5 144.136 249.887C143.827 249.274 143.375 248.717 142.807 248.249C142.239 247.782 141.565 247.412 140.824 247.16C140.084 246.909 139.29 246.782 138.49 246.785ZM160.563 226.027C159.762 226.03 158.97 226.164 158.231 226.421C157.492 226.679 156.821 227.054 156.257 227.527C155.692 228 155.245 228.56 154.941 229.176C154.637 229.792 154.482 230.452 154.485 231.118L154.598 259.271C154.603 260.615 155.251 261.901 156.398 262.847C157.545 263.792 159.098 264.32 160.715 264.314C162.332 264.307 163.881 263.767 165.02 262.812C166.16 261.857 166.797 260.566 166.791 259.222L166.678 231.071C166.676 230.406 166.516 229.748 166.207 229.134C165.899 228.52 165.448 227.963 164.88 227.495C164.312 227.026 163.638 226.655 162.898 226.404C162.157 226.152 161.363 226.024 160.563 226.027ZM377.998 160.506L378.301 235.801C378.317 236.081 378.285 236.361 378.206 236.634C377.375 241.709 369.005 249.892 363.153 250.248C363.075 250.279 362.99 250.294 362.904 250.292C362.853 250.292 362.805 250.332 362.754 250.332L362.655 250.333C362.028 250.434 361.392 250.493 360.754 250.508L341.244 250.587L310.14 277.405L310.568 383.839C308.467 384.638 306.319 385.395 304.122 386.109C302.975 386.489 301.777 386.869 300.575 387.164L300.124 275.283C300.117 273.941 300.72 272.647 301.812 271.659L326.189 250.647L270.211 250.873C268.743 250.881 267.288 250.65 265.929 250.191C264.569 249.732 263.332 249.054 262.288 248.197C261.245 247.341 260.414 246.321 259.845 245.197C259.276 244.073 258.979 242.866 258.971 241.646L258.668 166.351C258.689 165.446 258.871 164.548 259.208 163.686L259.208 163.647C259.187 158.532 270.065 151.669 276.267 151.644L366.806 151.279C368.272 151.271 369.724 151.503 371.081 151.963C372.438 152.423 373.671 153.1 374.711 153.958C375.751 154.815 376.577 155.835 377.141 156.958C377.705 158.082 377.996 159.288 377.998 160.506Z" fill="black"/>
</g>
<path d="M331.635 124.243C331.307 124.244 330.981 124.192 330.677 124.089C330.374 123.985 330.097 123.833 329.864 123.641C329.632 123.449 329.447 123.22 329.32 122.968C329.194 122.716 329.129 122.446 329.128 122.173L329.047 102.175C329.046 101.838 329.143 101.505 329.33 101.206C329.518 100.907 329.79 100.65 330.123 100.457L386.945 67.71C387.361 67.4698 387.854 67.3402 388.36 67.3383L411.672 67.2444C412.008 67.2324 412.344 67.2769 412.659 67.3752C412.974 67.4736 413.262 67.6238 413.505 67.8169C413.749 68.01 413.943 68.2419 414.076 68.4989C414.208 68.7559 414.278 69.0326 414.279 69.3125C414.28 69.5923 414.213 69.8696 414.082 70.1276C413.951 70.3857 413.759 70.6192 413.517 70.8142C413.276 71.0093 412.989 71.1618 412.675 71.2627C412.361 71.3636 412.025 71.4108 411.689 71.4014L389.155 71.4921L334.057 103.25L334.133 122.153C334.135 122.427 334.071 122.698 333.946 122.951C333.822 123.204 333.638 123.435 333.406 123.629C333.174 123.823 332.898 123.977 332.594 124.083C332.29 124.188 331.964 124.243 331.635 124.243ZM251.93 126.876C251.601 126.878 251.275 126.825 250.971 126.722C250.667 126.619 250.39 126.467 250.157 126.275C249.924 126.082 249.738 125.854 249.612 125.602C249.485 125.35 249.42 125.079 249.419 124.806L249.377 114.308L231.69 99.7277L177.456 99.946C176.809 99.928 176.196 99.7025 175.746 99.3168C175.296 98.931 175.043 98.4151 175.041 97.8772C175.039 97.3394 175.287 96.8214 175.734 96.4321C176.181 96.0427 176.792 95.8123 177.439 95.7891L232.708 95.5666C233.036 95.5653 233.362 95.6179 233.666 95.7213C233.97 95.8248 234.246 95.977 234.479 96.1694L253.635 111.961C253.868 112.153 254.054 112.381 254.181 112.633C254.308 112.885 254.374 113.155 254.375 113.428L254.42 124.786C254.422 125.059 254.359 125.329 254.234 125.582C254.11 125.835 253.927 126.065 253.696 126.259C253.464 126.453 253.189 126.608 252.886 126.714C252.583 126.819 252.258 126.874 251.93 126.876ZM443.607 200.244L413.188 200.367C412.525 200.369 411.889 200.152 411.42 199.764L389.75 181.906L366.137 182.001C365.801 182.013 365.465 181.968 365.15 181.87C364.835 181.772 364.547 181.621 364.303 181.428C364.06 181.235 363.866 181.003 363.733 180.746C363.6 180.489 363.531 180.212 363.53 179.933C363.529 179.653 363.596 179.376 363.727 179.117C363.857 178.859 364.05 178.626 364.291 178.431C364.533 178.236 364.82 178.083 365.134 177.982C365.448 177.882 365.784 177.834 366.12 177.844L390.768 177.744C391.096 177.743 391.422 177.796 391.726 177.899C392.03 178.003 392.306 178.155 392.539 178.347L414.209 196.206L443.59 196.087C444.237 196.105 444.85 196.331 445.3 196.717C445.75 197.102 446.003 197.618 446.005 198.156C446.008 198.694 445.759 199.212 445.312 199.601C444.865 199.991 444.254 200.221 443.607 200.244ZM181.632 238.505L158.144 238.599C157.497 238.581 156.884 238.356 156.434 237.97C155.984 237.584 155.731 237.069 155.729 236.531C155.726 235.993 155.975 235.475 156.422 235.085C156.869 234.696 157.48 234.466 158.127 234.442L179.949 234.355L193.665 206.753C193.853 206.372 194.172 206.046 194.583 205.817C194.993 205.587 195.476 205.464 195.971 205.462L220.373 205.364C221.036 205.361 221.674 205.578 222.145 205.966C222.616 206.354 222.881 206.882 222.884 207.434C222.886 207.986 222.624 208.516 222.157 208.908C221.689 209.3 221.053 209.522 220.389 209.524L197.65 209.616L183.935 237.215C183.747 237.595 183.428 237.92 183.018 238.15C182.608 238.379 182.126 238.503 181.632 238.505ZM320.704 234.685C321.707 233.76 322.294 232.575 322.366 231.332C322.438 230.09 321.99 228.865 321.099 227.867C320.708 227.405 320.199 227.023 319.607 226.748C319.015 226.472 318.356 226.31 317.678 226.275C317.001 226.239 316.322 226.329 315.692 226.54C315.062 226.751 314.497 227.076 314.037 227.492L280.278 256.63C279.182 257.613 278.585 258.909 278.612 260.248L279.11 383.901C272.28 384.685 267.299 386.932 267.31 389.597C267.323 392.879 274.867 395.514 284.158 395.477C293.449 395.439 300.975 392.743 300.962 389.462C300.951 386.796 295.952 384.59 289.112 383.861L288.623 262.376L320.704 234.685ZM506.048 66.404C506.035 69.5135 504.958 72.5571 502.942 75.1788C500.925 77.8006 498.054 79.8921 494.662 81.2088C491.271 82.5255 487.5 83.0129 483.79 82.614C480.081 82.2152 476.586 80.9465 473.715 78.9564L473.714 78.81C469.926 76.2935 467.483 72.6376 466.914 68.6324C466.757 67.9507 466.693 67.2561 466.726 66.5623C466.709 62.2283 468.763 58.0636 472.438 54.9842C476.113 51.9048 481.107 50.163 486.321 50.142C491.535 50.121 496.543 51.8225 500.243 54.8722C503.942 57.9219 506.03 62.07 506.048 66.404Z" fill="#2E1C67"/>
<path d="M530.6 66.3052C530.615 69.8681 529.97 73.4126 528.686 76.8137C527.193 81.1856 524.669 85.2682 521.26 88.8237C517.981 92.5188 513.813 95.607 509.022 97.8915C502.208 101.316 494.404 103.137 486.447 103.161C480.946 103.215 475.492 102.331 470.422 100.563C470.044 100.534 469.679 100.434 469.353 100.272C465.959 99.1372 462.778 97.6065 459.905 95.7256C452.262 91.1167 446.668 84.537 443.992 77.0083C442.841 73.6424 442.23 70.1644 442.174 66.6642L454.804 66.6134C454.839 69.123 455.329 71.6134 456.258 74.0005C458.014 79.3885 461.923 84.1177 467.342 87.4121C469.55 88.8495 472.018 89.9873 474.654 90.7833L474.831 90.7826C478.483 92.0838 482.429 92.7229 486.404 92.6574C492.106 92.6593 497.701 91.3591 502.579 88.8989C507.041 86.7336 510.776 83.6679 513.436 79.986C516.096 76.304 517.595 72.1249 517.796 67.8359C517.941 67.3534 518 66.8557 517.97 66.3591C517.886 59.3919 514.505 52.7366 508.557 47.8334C502.61 42.9302 494.576 40.1736 486.193 40.1602L486.151 29.6656C497.02 29.5944 507.515 32.9315 515.544 39.0112C520.358 42.3549 524.155 46.5953 526.628 51.3888C529.218 56.0689 530.572 61.157 530.6 66.3113L530.6 66.3052Z" fill="#F8A82A"/>
<path d="M486.238 51.402C481.459 51.4685 476.9 53.0959 473.548 55.9323C470.196 58.7687 468.32 62.5861 468.326 66.5589C468.31 68.2274 468.679 69.8826 469.414 71.4344C470.518 72.7092 471.421 74.0964 472.102 75.5623C473.976 77.5853 476.441 79.1761 479.264 80.1838C482.087 81.1916 485.174 81.5829 488.232 81.3206C491.29 81.0584 494.219 80.1513 496.739 78.6853C499.259 77.2194 501.288 75.2432 502.633 72.9441C503.979 70.6451 504.595 68.0994 504.425 65.5485C504.255 62.9977 503.304 60.5262 501.662 58.3684C500.02 56.2106 497.741 54.4381 495.042 53.2189C492.342 51.9997 489.312 51.3743 486.238 51.402ZM486.347 78.4634C484.452 78.4779 482.574 78.1803 480.819 77.588C479.064 76.9956 477.469 76.1201 476.124 75.012C474.78 73.904 473.713 72.5852 472.985 71.1319C472.258 69.6786 471.884 68.1195 471.886 66.5446C471.849 63.3477 473.342 60.2679 476.036 57.9824C478.73 55.6969 482.404 54.3929 486.25 54.3573C490.114 54.3562 493.82 55.6235 496.562 57.8835C499.303 60.1435 500.858 63.2132 500.889 66.4248C500.877 69.6213 499.339 72.6852 496.612 74.9427C493.885 77.2002 490.193 78.4666 486.347 78.4634Z" fill="white"/>
<path d="M529.292 50.3411C526.497 45.2143 522.343 40.6809 517.14 37.0802C510.822 32.3624 503.053 29.192 494.695 27.9203C486.336 26.6485 477.713 27.325 469.782 29.8749C463.665 31.7768 458.101 34.7335 453.455 38.5503C448.809 42.3671 445.187 46.9574 442.827 52.019C441.574 54.2829 440.686 56.6738 440.184 59.1298C439.617 61.6168 439.33 64.142 439.327 66.6726C439.355 70.3805 440.028 74.0648 441.327 77.6107C444.126 85.6071 450.036 92.6032 458.132 97.5047C461.062 99.4339 464.302 101.014 467.758 102.199C468.257 102.456 468.798 102.653 469.364 102.785C474.795 104.601 480.598 105.531 486.456 105.525C494.904 105.47 503.185 103.548 510.451 99.9567C515.563 97.4954 519.98 94.149 523.401 90.1448C526.814 86.6563 529.45 82.6897 531.184 78.4323C532.657 74.5005 533.419 70.4098 533.447 66.2937C533.444 60.7893 532.027 55.3506 529.292 50.3411ZM515.012 39.8978C519.507 43.2092 523.103 47.277 525.562 51.8323C528.093 56.3671 529.388 61.3115 529.356 66.3132C529.415 69.6248 528.827 72.9232 527.616 76.08C526.223 80.4992 523.757 84.636 520.37 88.2356C517.008 91.773 512.925 94.7925 508.307 97.1563C501.676 100.396 494.129 102.111 486.442 102.124C481.077 102.155 475.757 101.323 470.775 99.6741C470.595 99.6748 470.418 99.5261 470.062 99.5276C466.646 98.3368 463.414 96.8109 460.434 94.9823C453.197 90.3598 447.884 83.97 445.238 76.7074C443.988 73.4615 443.373 70.0688 443.418 66.6592C443.434 62.3129 444.381 58.0026 446.214 53.9298C449.242 47.1424 454.688 41.2814 461.825 37.1298C468.962 32.9783 477.45 30.7339 486.155 30.6965C496.835 30.6163 507.148 33.9043 515.016 39.8978L515.012 39.8978Z" fill="#9FABF4"/>
<path d="M512.956 103.497C504.917 107.408 495.781 109.486 486.472 109.52C480.013 109.596 473.601 108.617 467.599 106.638L469.364 102.785L470.419 100.563L470.775 99.6741L472.36 96.1176C473.055 94.92 473.645 93.6822 474.125 92.4141L474.831 90.7826L476.243 87.971C480.186 89.2691 484.439 89.7888 488.668 89.4891C492.896 89.1895 496.985 88.0788 500.612 86.2442L502.579 88.8958L508.307 97.1563L509.022 97.8915L510.45 99.9597L512.956 103.497Z" fill="#2E1C67"/>
<path d="M552.741 41.6673L529.292 50.3411L526.628 51.3888L525.562 51.8323L519.699 53.9298C518.025 50.7905 515.659 47.9399 512.723 45.5249C509.346 42.485 505.239 40.0686 500.666 38.4316C496.094 36.7947 491.157 35.9736 486.176 36.0215L486.055 5.99867C496.116 5.93362 506.076 7.63257 515.287 10.9846C524.498 14.3367 532.752 19.2665 539.51 25.4524C545.049 30.1559 549.53 35.6463 552.741 41.6643L552.741 41.6673Z" fill="#F8A82A"/>
<path d="M455.129 100.905C446.283 95.3504 439.8 87.5951 436.62 78.7642L459.696 73.0564C461.407 77.7903 464.888 81.9464 469.633 84.9233L455.129 100.905Z" fill="#644AFF"/>
<path d="M469.96 30.4658C463.969 32.4065 458.518 35.3462 453.943 39.1036C449.368 42.861 445.767 47.3564 443.36 52.3127C442.271 54.5627 441.446 56.8948 440.897 59.2764L440.184 59.1267L417.217 55.5227C418.306 50.6591 420.141 45.9306 422.676 41.4529C430.522 27.8015 444.36 17.1606 461.342 11.7192L469.782 29.8749L469.96 30.4658Z" fill="#533DD3"/>
<path d="M540.386 66.2657C540.443 71.8866 539.197 77.4657 536.717 82.6982C534.817 86.6806 532.256 90.4235 529.111 93.8183L523.401 90.1448L521.26 88.8206L520.369 88.2355L519.656 87.7931C523.012 84.1232 525.474 79.9441 526.901 75.4911C527.955 72.5106 528.482 69.419 528.464 66.3137L540.386 66.2657Z" fill="#4931AD"/>
<path d="M514.665 217.953L510.035 216.492C510.208 215.264 510.203 214.023 510.02 212.796L514.638 211.298C515.686 210.868 516.502 210.127 516.926 209.222C517.351 208.317 517.352 207.314 516.93 206.409L514.776 201.98C514.515 201.482 514.123 201.039 513.63 200.683C513.137 200.327 512.554 200.066 511.924 199.921C511.053 199.702 510.122 199.706 509.253 199.931C509.157 200.013 509.033 200.066 508.898 200.082L506.765 200.829L504.456 201.579C503.388 200.696 502.313 199.813 501.243 199.079L503.187 195.225C503.387 194.851 503.506 194.45 503.538 194.041C503.558 193.296 503.314 192.564 502.836 191.934C502.359 191.305 501.669 190.807 500.852 190.501L495.33 188.748C494.62 188.439 493.805 188.338 493.017 188.462C492.134 188.599 491.326 188.965 490.709 189.508C490.382 189.684 490.133 189.944 490 190.249C489.818 190.396 489.818 190.546 489.646 190.696L488.587 192.917L487.702 194.547C486.284 194.404 484.849 194.41 483.431 194.564L481.46 190.729C481.067 190.002 480.407 189.398 479.575 189.003C478.743 188.607 477.781 188.442 476.827 188.53C476.673 188.627 476.485 188.679 476.292 188.679C475.936 188.68 475.937 188.827 475.757 188.827L470.43 190.77C469.887 190.941 469.391 191.2 468.971 191.533C468.551 191.866 468.215 192.265 467.984 192.708C467.753 193.15 467.632 193.627 467.626 194.108C467.621 194.59 467.732 195.068 467.953 195.514L469.928 199.202C469.752 199.352 469.577 199.649 469.218 199.797C468.407 200.457 467.638 201.152 466.915 201.88L462.285 200.27C461.427 199.991 460.485 199.943 459.592 200.133C458.699 200.322 457.899 200.74 457.306 201.327C457.032 201.653 456.795 202.001 456.598 202.364L454.48 206.807C454.227 207.241 454.086 207.714 454.067 208.196C454.049 208.678 454.153 209.158 454.373 209.604C454.593 210.05 454.924 210.452 455.344 210.784C455.764 211.116 456.264 211.371 456.811 211.531L461.441 213.138C461.268 214.317 461.273 215.51 461.456 216.688L460.924 216.839L456.839 218.332C455.798 218.729 454.981 219.442 454.554 220.324C454.127 221.207 454.124 222.191 454.546 223.075L456.699 227.504C457.013 228.097 457.507 228.612 458.132 228.998C458.758 229.384 459.494 229.628 460.268 229.707L460.976 229.704C461.517 229.726 462.058 229.675 462.579 229.551L467.02 227.904C467.311 228.112 467.553 228.362 467.734 228.643C468.529 229.267 469.363 229.857 470.233 230.408L468.293 234.258C468.084 234.706 467.983 235.183 467.996 235.662C468.008 236.142 468.135 236.615 468.368 237.053C468.601 237.492 468.935 237.888 469.352 238.219C469.77 238.55 470.262 238.809 470.8 238.982L476.147 240.882C476.893 241.081 477.685 241.129 478.459 241.022C479.197 240.905 479.89 240.64 480.478 240.251C481.066 239.862 481.531 239.36 481.833 238.788L483.594 234.938C485.066 235.126 486.56 235.169 488.045 235.066L488.404 235.657L490.016 238.755C490.24 239.191 490.565 239.586 490.972 239.918C491.38 240.249 491.863 240.51 492.392 240.687C492.922 240.863 493.488 240.951 494.059 240.945C494.63 240.939 495.194 240.84 495.719 240.653L499.273 239.459L501.047 238.86C501.575 238.677 502.054 238.408 502.456 238.069C502.859 237.73 503.176 237.328 503.389 236.887C503.603 236.445 503.708 235.973 503.7 235.497C503.691 235.022 503.569 234.553 503.339 234.117L501.548 230.282C502.685 229.5 503.697 228.601 504.561 227.607L507.593 228.778L509.195 229.214C510.081 229.492 511.048 229.54 511.969 229.351C512.889 229.162 513.72 228.745 514.35 228.156L514.878 227.269L517.171 222.676C517.38 222.229 517.481 221.752 517.469 221.272C517.456 220.792 517.329 220.32 517.096 219.881C516.864 219.443 516.529 219.046 516.112 218.716C515.694 218.385 515.203 218.126 514.665 217.953ZM492.824 228.837C492.644 228.838 492.644 228.985 492.468 228.985C490.071 229.698 487.543 230.059 484.998 230.052C481.507 229.892 478.141 228.928 475.275 227.268C472.409 225.607 470.157 223.316 468.77 220.651C468.561 220.267 468.381 219.872 468.23 219.47C466.846 215.82 467.146 211.871 469.073 208.391C471 204.912 474.414 202.151 478.652 200.646C480.545 200.083 482.517 199.728 484.519 199.589C487 199.425 489.493 199.718 491.821 200.447C494.223 201.162 496.425 202.274 498.295 203.715C500.166 205.156 501.666 206.897 502.706 208.833C503.646 210.683 504.136 212.67 504.147 214.679C504.159 216.688 503.692 218.68 502.773 220.539C501.855 222.399 500.502 224.089 498.795 225.514C497.087 226.938 495.058 228.068 492.824 228.837Z" fill="#9FABF4"/>
<path d="M502.706 208.833C501.666 206.897 500.165 205.156 498.294 203.714C496.423 202.273 494.22 201.162 491.818 200.447C489.491 199.72 486.999 199.428 484.519 199.592C482.517 199.73 480.545 200.084 478.652 200.646C474.415 202.152 471.001 204.913 469.075 208.392C467.15 211.872 466.849 215.82 468.234 219.47C468.383 219.872 468.563 220.267 468.77 220.651C470.157 223.316 472.409 225.607 475.275 227.268C478.141 228.928 481.508 229.892 484.998 230.052C487.543 230.059 490.071 229.698 492.468 228.985C492.645 228.985 492.644 228.838 492.824 228.838C495.058 228.068 497.087 226.938 498.795 225.514C500.503 224.09 501.855 222.399 502.773 220.539C503.692 218.68 504.159 216.688 504.147 214.679C504.136 212.67 503.646 210.683 502.706 208.833ZM491.022 223.373C490.667 223.521 490.487 223.522 490.311 223.669C488.17 224.405 485.807 224.571 483.55 224.141C480.658 223.698 478.059 222.394 476.241 220.474C475.719 219.887 475.298 219.242 474.989 218.558C473.785 216.189 473.758 213.519 474.916 211.131C476.073 208.743 478.32 206.832 481.165 205.815C482.707 205.348 484.329 205.092 485.969 205.054C487.32 205.066 488.654 205.312 489.883 205.777C491.284 206.177 492.562 206.828 493.627 207.683C494.873 208.622 495.851 209.781 496.488 211.075C497.604 213.318 497.662 215.83 496.649 218.11C495.635 220.389 493.626 222.268 491.022 223.373Z" fill="#2E1C67"/>
<path d="M541.718 175.697L538.335 174.674L538.324 172.014L541.695 170.817C542.466 170.514 543.065 169.972 543.362 169.307C543.659 168.643 543.631 167.908 543.284 167.261L541.671 164.013C541.491 163.868 541.49 163.572 541.313 163.423C540.933 162.97 540.358 162.655 539.706 162.545C539.066 162.4 538.389 162.403 537.75 162.553L537.57 162.554L534.196 163.748C533.467 163.074 532.693 162.435 531.876 161.835L533.289 159.021C533.432 158.741 533.491 158.436 533.461 158.133C533.463 157.6 533.278 157.08 532.929 156.634C532.58 156.188 532.081 155.837 531.495 155.624L527.575 154.31C527.011 154.118 526.392 154.068 525.794 154.168C525.452 154.184 525.117 154.258 524.812 154.387C524.506 154.516 524.235 154.696 524.018 154.916L523.487 155.361C523.488 155.51 523.309 155.657 523.309 155.807L522.603 157.289L521.896 158.475L518.697 158.488L517.262 155.831C517.035 155.263 516.565 154.785 515.94 154.487C515.316 154.189 514.581 154.093 513.876 154.216L513.516 154.217C513.381 154.234 513.257 154.287 513.161 154.368L509.255 155.714C508.851 155.844 508.483 156.041 508.174 156.293C507.864 156.545 507.62 156.846 507.454 157.179C507.289 157.511 507.207 157.869 507.213 158.228C507.219 158.588 507.313 158.943 507.489 159.271L508.924 161.928L508.39 162.372C507.755 162.83 507.162 163.327 506.616 163.859L503.236 162.835C502.638 162.633 501.98 162.583 501.347 162.691C500.714 162.8 500.134 163.062 499.679 163.444C499.382 163.704 499.141 164.004 498.967 164.332L498.265 165.817L497.38 167.446C497.095 168.117 497.122 168.851 497.453 169.506C497.785 170.161 498.398 170.69 499.174 170.989L502.558 172.158L502.569 174.818L502.213 174.969L499.194 176.018C498.807 176.163 498.459 176.371 498.169 176.628C497.88 176.886 497.654 177.189 497.507 177.52C497.359 177.85 497.291 178.202 497.308 178.554C497.325 178.906 497.426 179.252 497.605 179.571L499.221 182.819C499.429 183.248 499.769 183.623 500.208 183.907C500.647 184.191 501.168 184.373 501.72 184.435C502.259 184.457 502.799 184.406 503.319 184.282L506.694 183.085L507.231 183.525C507.765 183.968 508.482 184.407 509.016 184.851L507.604 187.662C507.294 188.332 507.307 189.075 507.642 189.736C507.976 190.397 508.605 190.925 509.398 191.208L513.315 192.522C513.878 192.715 514.497 192.764 515.095 192.664C515.637 192.577 516.147 192.383 516.58 192.098C517.013 191.812 517.357 191.445 517.584 191.026L518.992 188.211C519.993 188.355 521.017 188.351 522.016 188.199L522.196 188.198L522.374 188.789L523.451 191.002C523.856 191.63 524.478 192.143 525.237 192.474C525.629 192.619 526.054 192.693 526.483 192.692C526.913 192.69 527.337 192.612 527.728 192.464L531.638 191.119C531.662 191.119 531.685 191.115 531.707 191.108C531.729 191.1 531.748 191.089 531.765 191.075C531.781 191.061 531.794 191.044 531.803 191.026C531.811 191.008 531.815 190.988 531.814 190.968C532.191 190.835 532.532 190.64 532.817 190.395C533.103 190.15 533.326 189.861 533.474 189.543C533.622 189.225 533.692 188.886 533.68 188.546C533.668 188.206 533.574 187.871 533.403 187.561L531.968 184.758C532.824 184.191 533.597 183.543 534.272 182.827L536.588 183.703L537.657 183.994C538.296 184.208 538.999 184.251 539.669 184.116C540.339 183.981 540.942 183.675 541.393 183.241C541.568 182.944 541.747 182.794 541.922 182.498L543.509 179.237C543.776 178.566 543.742 177.838 543.412 177.187C543.083 176.536 542.482 176.007 541.718 175.697ZM527.158 183.002C526.727 183.303 526.249 183.553 525.737 183.746L525.381 183.748C524.387 184.158 523.29 184.365 522.18 184.352C519.282 184.71 516.325 184.256 513.775 183.061C511.226 181.866 509.229 179.999 508.1 177.754L507.56 176.872C506.661 174.566 506.651 172.084 507.532 169.772C508.165 168.275 509.172 166.905 510.486 165.753C511.8 164.601 513.391 163.692 515.156 163.086C516.591 162.646 518.082 162.342 519.599 162.181C521.42 162.129 523.234 162.373 524.941 162.897C527.489 163.538 529.693 164.887 531.184 166.718C531.889 167.417 532.434 168.217 532.793 169.078C534.135 171.56 534.3 174.372 533.255 176.954C532.211 179.535 530.033 181.695 527.158 183.002Z" fill="#9FABF4"/>
<path d="M532.793 169.078C532.434 168.217 531.889 167.417 531.184 166.718C529.692 164.888 527.488 163.54 524.941 162.9C523.234 162.375 521.42 162.13 519.599 162.181C518.082 162.341 516.591 162.644 515.156 163.083C513.391 163.689 511.799 164.599 510.485 165.751C509.171 166.904 508.165 168.274 507.532 169.772C506.652 172.083 506.662 174.564 507.56 176.869L508.096 177.754C509.225 179.999 511.222 181.866 513.772 183.061C516.322 184.256 519.279 184.71 522.177 184.352C523.287 184.366 524.386 184.158 525.381 183.748L525.737 183.746C526.249 183.553 526.727 183.303 527.158 183.002C530.033 181.695 532.209 179.534 533.253 176.953C534.297 174.372 534.132 171.56 532.79 169.078L532.793 169.078ZM526.248 178.569C525.675 179.046 525.017 179.448 524.297 179.76C524.118 179.76 523.942 179.911 523.762 179.911C522.838 180.334 521.794 180.542 520.741 180.512C519.349 180.576 517.961 180.339 516.711 179.826C515.462 179.313 514.394 178.54 513.611 177.582C513.194 177.176 512.835 176.732 512.541 176.257C511.842 174.908 511.649 173.414 511.988 171.971C512.267 170.822 512.882 169.747 513.778 168.841C514.674 167.935 515.824 167.225 517.126 166.775C518.279 166.478 519.478 166.323 520.684 166.315C521.658 166.315 522.623 166.462 523.533 166.749C524.536 167.041 525.452 167.507 526.221 168.116C526.991 168.725 527.595 169.463 527.995 170.281C528.175 170.427 528.352 170.575 528.353 170.722C529.01 172.05 529.161 173.515 528.784 174.918C528.408 176.322 527.523 177.596 526.248 178.569Z" fill="#2E1C67"/>
<path d="M554.693 216.608C554.869 215.976 554.866 215.318 554.686 214.687L557.174 213.789C557.784 213.588 558.274 213.195 558.538 212.696C558.803 212.196 558.82 211.631 558.587 211.121L557.329 208.76C557.182 208.477 556.962 208.226 556.685 208.022C556.408 207.819 556.08 207.669 555.725 207.583C555.267 207.435 554.758 207.437 554.301 207.588L554.125 207.589L551.633 208.487C551.143 208.009 550.607 207.567 550.028 207.163L550.908 205.086C551.036 204.856 551.097 204.603 551.085 204.35C551.109 203.947 550.985 203.548 550.729 203.206C550.473 202.864 550.098 202.595 549.653 202.434L546.625 201.41C546.226 201.289 545.801 201.24 545.377 201.265C544.909 201.373 544.482 201.579 544.136 201.862C543.96 202.012 543.781 202.159 543.781 202.309C543.602 202.309 543.602 202.456 543.603 202.605L542.899 203.645L542.547 204.68C541.724 204.535 540.873 204.538 540.052 204.69L539.155 202.62C538.934 202.194 538.557 201.837 538.077 201.6C537.597 201.364 537.039 201.259 536.482 201.301C536.387 201.383 536.262 201.436 536.127 201.452L535.951 201.453L532.928 202.502C532.635 202.608 532.37 202.762 532.15 202.954C531.929 203.146 531.755 203.372 531.64 203.62C531.525 203.868 531.471 204.132 531.479 204.398C531.488 204.663 531.56 204.924 531.691 205.166L532.771 207.233C532.591 207.234 532.592 207.38 532.416 207.53C531.882 207.828 531.527 208.272 530.997 208.573L528.502 207.842C528.061 207.658 527.559 207.603 527.075 207.685C526.592 207.767 526.156 207.982 525.836 208.295C525.649 208.458 525.526 208.665 525.483 208.888L524.244 211.259C524.115 211.503 524.044 211.765 524.038 212.031C524.031 212.296 524.088 212.56 524.205 212.808C524.322 213.055 524.497 213.28 524.72 213.471C524.942 213.661 525.209 213.813 525.503 213.917L527.994 214.791L528.003 216.865L527.826 216.866L525.518 217.613C525.224 217.72 524.959 217.874 524.738 218.066C524.517 218.258 524.344 218.485 524.229 218.733C524.113 218.981 524.059 219.246 524.068 219.512C524.077 219.777 524.149 220.039 524.281 220.281L525.538 222.64C525.699 222.983 525.964 223.285 526.308 223.517C526.652 223.749 527.062 223.903 527.499 223.964C527.922 223.977 528.345 223.924 528.746 223.81L531.23 222.916C531.237 222.992 531.276 223.065 531.342 223.119C531.408 223.173 531.495 223.205 531.588 223.21C531.945 223.651 532.482 223.944 532.84 224.385L531.78 226.311C531.591 226.824 531.633 227.376 531.896 227.865C532.16 228.354 532.628 228.747 533.214 228.971L536.066 229.993C536.467 230.103 536.889 230.151 537.31 230.135L537.49 230.134C537.868 230.048 538.221 229.899 538.525 229.694C538.83 229.49 539.081 229.235 539.261 228.946L540.321 226.868L542.633 226.859L542.817 227.157L543.709 228.929C543.982 229.375 544.421 229.736 544.961 229.957C545.601 230.103 546.277 230.1 546.916 229.95L548.518 229.351C548.517 229.332 548.521 229.313 548.53 229.294C548.538 229.276 548.551 229.26 548.567 229.246C548.584 229.232 548.603 229.221 548.625 229.213C548.646 229.205 548.67 229.201 548.693 229.201L549.76 228.904C550.343 228.676 550.807 228.28 551.067 227.789C551.327 227.299 551.364 226.747 551.173 226.236L550.636 225.201L550.097 224.169L551.695 222.833L553.473 223.415L554.186 223.708C554.693 223.861 555.247 223.87 555.761 223.734C556.275 223.599 556.722 223.326 557.031 222.958C557.21 222.811 557.385 222.661 557.385 222.511L558.623 220.143C558.844 219.648 558.838 219.104 558.606 218.613C558.373 218.123 557.931 217.721 557.365 217.485L554.693 216.608ZM551.14 218.102C550.683 219.289 549.925 220.381 548.915 221.304C547.906 222.226 546.669 222.957 545.29 223.448L545.114 223.448C542.662 224.27 539.921 224.255 537.485 223.406C535.05 222.558 533.117 220.944 532.106 218.917C532.06 218.695 531.935 218.491 531.748 218.329C531.016 216.308 531.205 214.133 532.281 212.219C533.356 210.304 535.241 208.785 537.577 207.952C538.623 207.68 539.694 207.478 540.778 207.347C542.101 207.335 543.419 207.479 544.691 207.776C544.871 207.776 545.048 207.921 545.228 207.921C547.676 208.835 549.642 210.455 550.761 212.482C551.679 214.259 551.813 216.249 551.14 218.102Z" fill="#9FABF4"/>
<path d="M550.761 212.482C549.642 210.455 547.676 208.834 545.228 207.921C545.052 207.921 544.871 207.776 544.691 207.776C543.418 207.479 542.101 207.335 540.778 207.347C539.694 207.478 538.623 207.68 537.577 207.951C535.242 208.785 533.357 210.304 532.282 212.217C531.207 214.131 531.017 216.306 531.748 218.326C531.936 218.489 532.061 218.694 532.106 218.917C533.117 220.944 535.05 222.558 537.485 223.406C539.921 224.255 542.662 224.27 545.114 223.448L545.29 223.447C546.669 222.957 547.906 222.226 548.915 221.304C549.925 220.381 550.683 219.289 551.14 218.102C551.813 216.249 551.678 214.259 550.761 212.482ZM544.211 220.496C544.074 220.507 543.947 220.56 543.855 220.644C542.521 221.075 541.057 221.137 539.678 220.823C538.299 220.509 537.079 219.835 536.197 218.9C536.02 218.605 535.662 218.164 535.481 217.869C534.837 216.536 534.845 215.046 535.505 213.716C536.165 212.387 537.423 211.324 539.012 210.755C539.78 210.429 540.655 210.323 541.502 210.452C542.226 210.462 542.944 210.558 543.636 210.736C544.481 210.97 545.254 211.355 545.902 211.864C546.55 212.372 547.056 212.991 547.387 213.679C547.963 214.939 547.957 216.333 547.371 217.591C546.784 218.849 545.658 219.883 544.211 220.493L544.211 220.496Z" fill="#2E1C67"/>
<path d="M78.7845 228.726L78.8667 249.136C78.8721 250.489 78.2306 251.789 77.0831 252.751C75.9357 253.712 74.3764 254.256 72.7483 254.263C71.1201 254.269 69.5565 253.738 68.4013 252.786C67.2462 251.834 66.5942 250.538 66.5888 249.185L66.5066 228.779C66.5012 227.425 67.1427 226.125 68.2902 225.163C69.4376 224.202 70.9969 223.658 72.625 223.651C74.2532 223.645 75.8168 224.176 76.9719 225.128C78.1271 226.081 78.7791 227.376 78.7845 228.729L78.7845 228.726Z" fill="#FFAE2C"/>
<path d="M100.773 209.859L100.912 244.314C100.95 244.992 100.822 245.669 100.536 246.306C100.25 246.942 99.8125 247.524 99.2493 248.017C98.6861 248.509 98.0091 248.902 97.2589 249.171C96.5087 249.441 95.7009 249.581 94.884 249.585C94.0672 249.588 93.2583 249.454 92.5059 249.19C91.7536 248.927 91.0734 248.54 90.5063 248.052C89.9392 247.564 89.4969 246.985 89.206 246.351C88.9152 245.717 88.7818 245.041 88.8139 244.362L88.6752 209.905C88.7088 208.593 89.3581 207.343 90.4846 206.422C91.6111 205.501 93.1255 204.982 94.7045 204.975C96.2834 204.969 97.802 205.476 98.9358 206.388C100.07 207.3 100.729 208.544 100.773 209.856L100.773 209.859Z" fill="#2E1C67"/>
<path d="M123.122 236.831L123.171 248.957C123.177 250.311 122.535 251.611 121.388 252.573C120.24 253.534 118.681 254.078 117.053 254.085C115.425 254.091 113.861 253.56 112.706 252.608C111.551 251.655 110.899 250.36 110.893 249.007L110.845 236.881C110.839 235.527 111.481 234.227 112.628 233.265C113.775 232.304 115.335 231.76 116.963 231.753C118.591 231.747 120.155 232.278 121.31 233.23C122.465 234.183 123.117 235.478 123.122 236.831Z" fill="#FFAE2C"/>
<path d="M145.1 216.04L145.213 244.138C145.25 244.816 145.122 245.494 144.837 246.13C144.551 246.767 144.113 247.349 143.55 247.841C142.987 248.334 142.31 248.726 141.56 248.996C140.809 249.265 140.002 249.406 139.185 249.409C138.368 249.413 137.559 249.279 136.807 249.015C136.054 248.752 135.374 248.364 134.807 247.876C134.24 247.388 133.798 246.81 133.507 246.176C133.216 245.542 133.083 244.865 133.115 244.187L133.002 216.089C133.035 214.776 133.685 213.526 134.811 212.605C135.937 211.684 137.452 211.165 139.031 211.159C140.61 211.152 142.128 211.659 143.262 212.571C144.396 213.483 145.055 214.728 145.1 216.04Z" fill="#2E1C67"/>
<path d="M162.306 70.304L162.496 117.33C162.383 118.101 162.051 118.84 161.528 119.484C161.005 120.129 160.305 120.662 159.487 121.038C159.176 121.287 158.815 121.488 158.421 121.634C157.955 121.915 157.398 122.072 156.823 122.086L156.288 122.088L141.696 121.702L128.173 121.314C127.139 121.313 126.136 121.022 125.327 120.489C124.517 119.955 123.949 119.21 123.713 118.373C123.567 118.095 123.504 117.79 123.53 117.487L123.328 111.128L122.724 94.1245L122.134 79.6337L121.744 71.3548L121.743 70.9095L122.269 69.5776C122.579 69.2004 122.935 68.8513 123.333 68.5364C123.332 68.2405 123.332 68.2405 123.512 68.2398C124.694 67.2503 126.278 66.664 127.952 66.5963L157.667 66.4767C158.276 66.471 158.879 66.5658 159.442 66.7555C160.006 66.9452 160.518 67.2261 160.95 67.5818C161.381 67.9376 161.723 68.3611 161.956 68.8279C162.189 69.2947 162.308 69.7954 162.306 70.3009L162.306 70.304Z" fill="#463ABF"/>
<path d="M160.71 71.1979L160.899 118.224C160.921 118.929 160.699 119.625 160.26 120.229C159.821 120.834 159.183 121.321 158.422 121.634C157.955 121.915 157.398 122.072 156.824 122.086L126.573 122.208C125.964 122.214 125.36 122.119 124.796 121.93C124.232 121.74 123.719 121.459 123.287 121.103C122.855 120.747 122.512 120.323 122.279 119.855C122.047 119.388 121.928 118.887 121.93 118.381L121.739 70.9095L122.266 69.5776C122.575 69.2004 122.932 68.8513 123.329 68.5364C123.425 68.4563 123.55 68.4044 123.685 68.3885C124.451 67.9006 125.389 67.6363 126.353 67.6367L156.064 67.5171C156.664 67.4945 157.262 67.5729 157.823 67.7476C158.385 67.9222 158.898 68.1895 159.332 68.5334C159.765 68.8772 160.111 69.2905 160.347 69.7485C160.583 70.2064 160.705 70.6994 160.706 71.1979L160.71 71.1979Z" fill="#2E1C67"/>
<path d="M125.306 70.8524L157.167 70.7242C157.895 70.7212 158.594 70.9588 159.111 71.3845C159.627 71.8103 159.919 72.3894 159.921 72.9944L160.096 116.546C160.098 117.151 159.811 117.732 159.298 118.161C158.785 118.59 158.088 118.833 157.361 118.836L125.51 118.964C125.148 118.966 124.79 118.908 124.455 118.795C124.12 118.681 123.816 118.514 123.559 118.303C123.302 118.091 123.098 117.84 122.959 117.563C122.819 117.286 122.746 116.988 122.745 116.688L122.57 73.1448C122.568 72.5397 122.854 71.9583 123.367 71.5284C123.88 71.0985 124.578 70.8554 125.306 70.8524ZM146.633 69.1806C146.634 69.2868 146.596 69.3907 146.526 69.4793C146.455 69.5678 146.354 69.637 146.236 69.6781C146.119 69.7192 145.989 69.7304 145.863 69.7102C145.738 69.69 145.623 69.6393 145.532 69.5646C145.442 69.4899 145.38 69.3945 145.354 69.2905C145.329 69.1865 145.341 69.0785 145.39 68.9802C145.438 68.8819 145.521 68.7978 145.627 68.7384C145.733 68.6789 145.857 68.647 145.985 68.6465C146.07 68.6461 146.154 68.6597 146.232 68.6863C146.311 68.713 146.382 68.7522 146.442 68.8018C146.503 68.8514 146.55 68.9104 146.583 68.9754C146.616 69.0404 146.633 69.1101 146.633 69.1806ZM144.158 69.5017L134.867 69.5391C134.818 69.5393 134.769 69.5314 134.724 69.5159C134.679 69.5004 134.637 69.4776 134.603 69.4489C134.568 69.4201 134.541 69.3859 134.522 69.3482C134.504 69.3105 134.494 69.2702 134.495 69.2295C134.494 69.1483 134.533 69.0703 134.601 69.0123C134.67 68.9544 134.763 68.9212 134.86 68.92L144.155 68.8826C144.253 68.8822 144.348 68.9142 144.417 68.9717C144.487 69.0292 144.527 69.1074 144.527 69.1891C144.527 69.2708 144.489 69.3493 144.419 69.4074C144.35 69.4654 144.256 69.4982 144.158 69.4986L144.158 69.5017Z" fill="#F2F2F2"/>
<path d="M356.552 145.535L356.855 220.805C356.872 224.825 350.796 231.504 345.254 234.012C344.194 234.581 343.02 234.987 341.788 235.213C341.718 235.269 341.634 235.311 341.542 235.337C341.45 235.362 341.353 235.371 341.256 235.361L326.839 234.535L323.815 234.395L307.798 233.425L304.95 233.29L255.117 230.383C252.26 230.412 249.501 229.527 247.408 227.913C245.316 226.298 244.052 224.076 243.876 221.706L243.874 221.26L243.686 219.19L240.135 176.615L239.946 174.25L239.572 169.813L237.707 148.676C237.764 148.318 237.882 147.968 238.059 147.637C239.106 142.604 248.869 136.651 254.74 136.627L345.301 136.263C346.775 136.251 348.237 136.482 349.602 136.943C350.968 137.404 352.209 138.085 353.255 138.947C354.301 139.809 355.131 140.835 355.697 141.966C356.263 143.097 356.554 144.31 356.552 145.535Z" fill="#2E1C67"/>
<path d="M349.991 150.883L350.294 226.154C350.347 228.246 349.529 230.289 347.979 231.94C346.429 233.591 344.242 234.747 341.788 235.213C341.718 235.269 341.634 235.311 341.542 235.337C341.45 235.362 341.352 235.371 341.256 235.361C340.616 235.494 339.956 235.547 339.297 235.519L248.736 235.883C247.262 235.894 245.801 235.663 244.436 235.202C243.071 234.741 241.83 234.06 240.784 233.198C239.738 232.336 238.909 231.31 238.343 230.179C237.778 229.049 237.487 227.836 237.488 226.611L237.185 151.341C237.184 150.435 237.36 149.535 237.707 148.676C237.764 148.317 237.884 147.968 238.062 147.637C238.925 145.961 240.361 144.532 242.191 143.526C244.021 142.52 246.165 141.982 248.358 141.978L338.919 141.614C341.868 141.622 344.691 142.603 346.767 144.341C348.843 146.079 350.002 148.432 349.991 150.883Z" fill="#9FABF4"/>
<path d="M317.02 213.698L291.769 212.372C291.166 212.375 290.57 212.28 290.012 212.091C289.455 211.902 288.948 211.624 288.52 211.272C288.093 210.919 287.753 210.501 287.521 210.039C287.289 209.577 287.168 209.082 287.167 208.581L283.568 186.008C283.559 183.904 289.113 181.573 291.641 181.563L319.547 181.45C320.762 181.445 321.928 181.842 322.79 182.552C323.651 183.262 324.138 184.229 324.142 185.238L324.235 208.432C324.244 210.537 319.552 213.688 317.02 213.698Z" fill="white"/>
<path d="M315.808 183.274L287.898 183.386C285.369 183.396 283.326 185.109 283.334 187.211L283.428 210.408C283.436 212.51 285.493 214.206 288.022 214.196L315.932 214.083C318.461 214.073 320.505 212.361 320.496 210.259L320.403 187.062C320.394 184.959 318.337 183.264 315.808 183.274Z" fill="#F8A82A"/>
<path d="M314.437 209.069L305.923 209.104C305.664 209.105 305.407 209.064 305.167 208.983C304.927 208.901 304.709 208.781 304.525 208.63C304.341 208.478 304.194 208.297 304.095 208.098C303.995 207.9 303.943 207.686 303.943 207.471C303.941 207.036 304.147 206.619 304.515 206.31C304.884 206.002 305.384 205.827 305.907 205.825L314.423 205.791C314.682 205.789 314.939 205.83 315.179 205.911C315.419 205.993 315.637 206.112 315.821 206.264C316.005 206.415 316.151 206.595 316.251 206.794C316.351 206.992 316.403 207.205 316.404 207.421C316.405 207.636 316.356 207.85 316.257 208.05C316.159 208.249 316.014 208.431 315.832 208.584C315.649 208.737 315.431 208.859 315.192 208.942C314.953 209.025 314.696 209.069 314.437 209.069ZM303.303 181.515L300.389 181.527L300.309 161.569L279.069 152.218C278.836 152.115 278.641 151.962 278.504 151.775C278.368 151.588 278.295 151.373 278.294 151.154L278.256 141.87L281.174 141.858L281.208 150.416L302.448 159.764C302.681 159.867 302.876 160.02 303.012 160.207C303.149 160.394 303.221 160.609 303.223 160.828L303.303 181.515ZM315.606 181.466L312.689 181.478L312.606 160.794C312.605 160.574 312.676 160.359 312.811 160.171C312.946 159.982 313.14 159.827 313.372 159.723L334.536 150.201L334.501 141.643L337.415 141.632L337.452 150.916C337.453 151.135 337.382 151.35 337.247 151.538C337.112 151.727 336.918 151.882 336.686 151.986L315.526 161.508L315.606 181.466ZM350.275 206.857L342.973 206.887C342.67 206.887 342.375 206.81 342.128 206.665C341.881 206.52 341.694 206.315 341.593 206.078L336.888 194.968L324.181 195.019L324.171 192.597L337.917 192.542C338.22 192.541 338.515 192.619 338.762 192.764C339.009 192.908 339.196 193.114 339.296 193.351L344.001 204.461L350.265 204.436L350.275 206.857ZM350.328 220.011L337.305 220.064C337.034 220.065 336.769 220.003 336.538 219.885C336.308 219.768 336.121 219.599 336 219.398L329.166 208.153L324.234 208.173L324.224 205.751L330.059 205.728C330.329 205.727 330.595 205.789 330.826 205.906C331.056 206.024 331.243 206.193 331.364 206.393L338.198 217.638L350.318 217.59L350.328 220.011ZM283.629 196.551L283.638 198.918L261.754 199.006C261.453 199.028 261.151 198.968 260.894 198.836C260.638 198.704 260.439 198.507 260.327 198.274L250.985 176.572L237.287 176.627L237.278 174.26L252.043 174.201C252.34 174.2 252.631 174.268 252.883 174.397C253.135 174.526 253.339 174.712 253.47 174.933L254.371 177.15L262.812 196.635L283.629 196.551ZM283.499 209.124L283.509 211.637L261.449 211.726L255.971 220.916C255.88 221.131 255.712 221.318 255.489 221.451C255.267 221.585 255 221.658 254.726 221.662L237.469 221.731L237.459 219.215L253.828 219.149L259.306 209.959C259.398 209.745 259.566 209.558 259.788 209.425C260.011 209.293 260.277 209.219 260.551 209.216L283.499 209.124ZM307.769 226.475L307.806 235.645L304.959 235.657L304.925 227.227L291.739 222.251C291.331 221.946 291.075 221.525 291.022 221.07L290.994 214.12L293.842 214.108L293.867 220.321L307.053 225.294C307.585 225.441 307.767 225.886 307.769 226.475ZM326.806 226.398L326.843 235.569L323.82 235.581L323.786 227.151L310.776 222.174C310.524 222.052 310.311 221.881 310.156 221.675C310 221.47 309.907 221.236 309.883 220.994L309.855 214.044L312.703 214.032L312.728 220.245L325.914 225.218C326.195 225.309 326.434 225.473 326.595 225.685C326.755 225.898 326.83 226.147 326.806 226.398Z" fill="white"/>
<path fill-rule="evenodd" clip-rule="evenodd" d="M295.528 179.973C295.495 179.924 295.491 179.87 295.454 179.824L283.173 163.663C283.004 163.422 282.778 163.212 282.509 163.045C282.239 162.878 281.932 162.759 281.606 162.693C281.279 162.627 280.94 162.616 280.609 162.662C280.277 162.707 279.96 162.807 279.675 162.957C279.391 163.106 279.146 163.302 278.955 163.532C278.763 163.762 278.63 164.021 278.561 164.294C278.493 164.568 278.492 164.85 278.557 165.124C278.623 165.398 278.755 165.658 278.944 165.888L290.111 180.58C289.381 181.148 288.888 181.893 288.7 182.708C288.513 183.523 288.643 184.366 289.07 185.115C289.497 185.864 290.199 186.481 291.076 186.876C291.953 187.271 292.959 187.424 293.948 187.313C294.937 187.202 295.859 186.833 296.58 186.259C297.301 185.684 297.784 184.934 297.959 184.118C298.135 183.301 297.994 182.459 297.556 181.714C297.118 180.969 296.407 180.36 295.524 179.973L295.528 179.973Z" fill="#2E1C67"/>
<path d="M390.745 374.47C390.068 378.147 388.329 381.635 385.676 384.633C383.023 387.632 379.535 390.052 375.513 391.687C370.618 393.546 365.198 394.233 359.863 393.671C355.123 393.122 350.651 391.522 346.915 389.038C343.179 386.555 340.319 383.281 338.633 379.559C336.835 375.966 336.265 372.029 336.984 368.181C337.134 367.423 337.37 366.679 337.687 365.958C339.101 360.721 342.829 356.115 348.133 353.051C351.819 350.849 356.112 349.455 360.614 348.997C365.117 348.539 369.684 349.032 373.894 350.43C378.103 351.828 381.819 354.087 384.697 356.997C387.575 359.907 389.523 363.374 390.359 367.078C391.024 369.502 391.154 372.006 390.745 374.47Z" fill="#2E1C67"/>
<path d="M386.838 376.41C385.954 381.32 383.15 385.853 378.858 389.309C374.567 392.765 369.027 394.952 363.096 395.532C357.164 396.111 351.171 395.05 346.043 392.514C340.915 389.978 336.938 386.107 334.726 381.5C332.928 377.905 332.358 373.967 333.08 370.118C333.428 368.181 334.078 366.29 335.013 364.492C337.382 359.937 341.473 356.147 346.665 353.697C351.857 351.247 357.867 350.271 363.782 350.917C369.655 351.619 375.095 353.88 379.29 357.363C383.055 360.507 385.611 364.512 386.631 368.869C387.144 371.36 387.213 373.901 386.838 376.41Z" fill="#9FABF4"/>
<path d="M352.544 385.872L352.478 385.866C352.041 385.805 351.628 385.658 351.275 385.436C350.921 385.215 350.637 384.925 350.447 384.593L345.019 375.16C344.704 374.613 344.663 373.983 344.907 373.41C345.15 372.837 345.657 372.368 346.316 372.105C346.976 371.842 347.733 371.808 348.422 372.009C349.111 372.211 349.675 372.632 349.99 373.179L353.73 379.679L371.489 364.717C371.739 364.488 372.042 364.303 372.381 364.173C372.719 364.043 373.085 363.972 373.458 363.963C373.83 363.954 374.2 364.008 374.547 364.121C374.893 364.235 375.208 364.405 375.473 364.622C375.738 364.84 375.947 365.099 376.087 365.386C376.228 365.672 376.298 365.979 376.292 366.289C376.286 366.598 376.205 366.903 376.053 367.186C375.901 367.469 375.683 367.724 375.41 367.935L354.893 385.216C354.59 385.469 354.219 385.66 353.811 385.774C353.404 385.888 352.97 385.921 352.544 385.872Z" fill="white"/>
<path opacity="0.1" fill-rule="evenodd" clip-rule="evenodd" d="M297.793 180.162C297.759 181.339 297.338 182.486 296.574 183.479C295.811 184.471 294.735 185.271 293.464 185.791C290.402 195.742 287.467 204.25 284.66 211.315C282.873 215.945 280.787 220.492 278.411 224.937C276.616 228.774 274.043 232.328 270.803 235.444C269.404 236.161 267.953 236.805 266.458 237.373C266.514 237.607 266.548 237.843 266.56 238.081C258.662 242.783 250.352 246.986 241.699 250.655C240.282 264.632 243.001 278.68 249.617 291.574C249.068 291.826 248.518 291.996 247.968 292.206C257.533 307.895 263.89 324.8 266.778 342.231C267.667 351.707 266.834 368.34 264.278 392.132C259.225 392.152 254.124 391.965 248.919 391.571C246.139 376.549 244.308 361.416 243.434 346.232C239.635 341.765 235.996 337.205 232.524 332.557C232.391 336.675 232.209 340.83 232.123 344.905C229.995 359.328 226.643 373.61 222.094 387.644C216.453 386.486 210.873 385.135 205.367 383.594C205.857 368.587 206.808 355.987 208.315 345.876C200.213 332.47 195.168 317.928 193.436 302.987C193.232 301.698 193.128 300.408 193.02 299.161C191.726 298.58 190.487 297.918 189.313 297.182C191.686 265.907 177.867 237.73 185.938 229.756C192.189 226.749 198.992 224.616 206.072 223.441C206.073 223.435 206.072 223.43 206.07 223.424C206.067 223.419 206.064 223.415 206.06 223.411C206.055 223.407 206.05 223.403 206.044 223.401C206.037 223.399 206.031 223.398 206.024 223.398C206.978 222.662 207.743 221.773 208.272 220.785C208.801 219.797 209.083 218.73 209.102 217.649C208.716 217.481 208.347 217.287 207.999 217.071C206.821 213.641 204.44 210.582 201.16 208.284C200.232 206.813 199.585 205.231 199.241 203.595C198.843 201.901 199.001 200.149 199.698 198.521C200.395 196.894 201.606 195.452 203.203 194.347C203.39 193.527 203.777 192.748 204.341 192.058C204.904 191.367 205.632 190.78 206.479 190.332C207.326 189.885 208.274 189.586 209.265 189.455C210.256 189.324 211.269 189.364 212.24 189.571C214.864 188.45 217.804 187.94 220.747 188.097C223.689 188.254 226.525 189.071 228.951 190.461C232.512 192.817 233.379 196.555 231.447 201.675C230.796 202.304 230.041 202.854 229.204 203.306C229.272 205.084 229.179 206.863 228.925 208.63C228.659 211.16 227.748 213.615 226.253 215.832C225.504 216.5 224.6 217.035 223.595 217.403C222.591 217.772 221.507 217.968 220.409 217.978C220.866 219.724 221.893 221.33 223.378 222.621C223.317 222.651 223.247 222.666 223.176 222.664C229.056 223.054 234.857 224.036 240.449 225.59C240.497 225.589 240.497 225.629 240.497 225.672C241.747 225.292 242.997 224.954 244.247 224.617C249.201 223.182 254.2 221.858 259.239 220.646C259.499 220.862 259.734 221.098 259.939 221.351C261.09 220.982 262.141 220.427 263.033 219.719C263.136 219.594 263.234 219.426 263.333 219.3C263.978 218.343 264.675 217.257 265.47 216.132C267.611 212.963 270.246 209.25 273.23 204.999C277.507 199.036 282.597 191.962 288.502 183.777C287.641 181.45 287.382 178.999 288.881 178.786C290.381 178.572 290.338 180.65 290.939 180.272C291.405 179.731 291.722 179.111 291.867 178.457C292.011 177.802 291.98 177.13 291.775 176.487C291.22 175.284 298.124 175.839 297.793 180.162Z" fill="black"/>
<path fill-rule="evenodd" clip-rule="evenodd" d="M174.097 259.943C169.378 282.607 172.077 305.9 181.913 327.381C176.402 350.853 172.639 374.582 170.647 398.435L177.846 400.138C193.844 364.674 203.137 340.731 205.724 328.307C208.533 307.752 213.504 286.675 206.796 266.493L174.097 259.943Z" fill="#2E1C67"/>
<path fill-rule="evenodd" clip-rule="evenodd" d="M170.944 393.904C169.388 394.721 168.219 395.96 167.635 397.41C167.05 398.86 167.086 400.433 167.736 401.862C169.978 403.576 192.457 407.179 196.448 405.907C200.918 402.451 184.887 401.671 179.505 395.727C176.553 395.507 173.663 394.892 170.948 393.904L170.944 393.904Z" fill="#F8A82A"/>
<path fill-rule="evenodd" clip-rule="evenodd" d="M284.842 174.41C273.344 201.15 263.921 217.111 256.571 222.295C255.121 223.094 253.184 223.278 251.635 224.032C242.748 228.614 233.424 232.583 223.758 235.899L225.359 210.654C232.255 209.171 239.647 208.721 247.048 207.529C248.339 207.245 249.548 206.747 250.601 206.063C256.575 198.845 266.385 187.566 280.03 172.225L284.842 174.41Z" fill="#FFD3A4"/>
<path fill-rule="evenodd" clip-rule="evenodd" d="M189.708 265.824C190.065 283.366 199.105 304.921 216.829 330.489C215.803 354.381 216.552 378.302 219.073 402.113L226.507 402.861C235.639 365.761 240.313 340.91 240.529 328.307C239.452 307.699 233.584 287.466 223.248 268.724L189.708 265.824Z" fill="#2E1C67"/>
<path fill-rule="evenodd" clip-rule="evenodd" d="M218.435 397.629C217.052 398.638 216.131 400.012 215.826 401.52C215.521 403.027 215.852 404.575 216.762 405.901C219.3 407.306 242.185 407.943 245.884 406.165C249.651 402.173 233.669 403.485 227.234 398.317C224.275 398.484 221.303 398.251 218.435 397.629Z" fill="#F8A82A"/>
<path fill-rule="evenodd" clip-rule="evenodd" d="M172.751 210.027C163.812 217.331 174.38 246.467 168.501 277.429C179.333 286.374 199.554 286.087 229.165 276.565C217.495 244.439 230.783 231.838 227.496 210.115C218.94 206.772 209.603 205.032 200.144 205.017C190.685 205.002 181.334 206.712 172.751 210.027Z" fill="#FFA015"/>
<path fill-rule="evenodd" clip-rule="evenodd" d="M208.916 195.093C205.062 194.085 200.978 193.837 196.987 194.369C198.145 199.496 196.964 203.132 193.442 205.277C197.718 207.533 203.5 207.726 210.79 205.854C209.468 204.316 208.608 202.536 208.282 200.664C207.957 198.792 208.175 196.882 208.919 195.092L208.916 195.093Z" fill="#FFD3A4"/>
<path fill-rule="evenodd" clip-rule="evenodd" d="M218.848 178.501L198.296 177.702L194.326 194.251C202.994 201.018 209.705 202.699 214.459 199.294C218.034 195.293 219.497 188.361 218.848 178.501Z" fill="#FFD3A4"/>
<path fill-rule="evenodd" clip-rule="evenodd" d="M219.972 174.26C217.722 172.684 214.997 171.649 212.09 171.264C209.183 170.88 206.204 171.162 203.473 172.078C202.528 171.791 201.523 171.669 200.518 171.72C199.514 171.771 198.533 171.994 197.636 172.375C196.74 172.757 195.948 173.287 195.309 173.935C194.671 174.582 194.2 175.331 193.927 176.137C188.744 179.37 187.539 183.941 190.312 189.848C193.322 192.393 195.348 195.628 196.129 199.139C197.492 200.304 199.264 201.079 201.192 201.353C203.119 201.628 205.103 201.387 206.857 200.667C208.016 200.037 208.914 199.126 209.43 198.059C209.946 196.991 210.055 195.818 209.743 194.699C208.926 193.903 208.412 192.923 208.264 191.883C209.028 190.705 209.758 190.353 210.454 190.826C211.039 191.237 211.46 191.785 211.664 192.399C211.868 193.013 211.845 193.664 211.598 194.267C212.083 194.128 212.507 193.872 212.816 193.532C213.126 193.192 213.306 192.783 213.334 192.357C213.724 191.048 213.655 189.673 213.134 188.396C216.147 188.351 219.029 187.356 221.196 185.613C223.691 180.662 223.283 176.877 219.972 174.26Z" fill="black"/>
<path fill-rule="evenodd" clip-rule="evenodd" d="M280.004 172.225C279.422 169.863 279.46 167.381 280.953 167.292C282.446 167.204 282.209 169.273 282.861 168.935C283.374 168.429 283.75 167.838 283.965 167.202C284.179 166.565 284.227 165.898 284.104 165.245C283.696 163.996 290.481 165.092 289.651 169.371C289.494 170.542 288.949 171.655 288.076 172.585C287.204 173.515 286.039 174.226 284.711 174.64L280.004 172.225Z" fill="#FFD3A4"/>
<path fill-rule="evenodd" clip-rule="evenodd" d="M252.078 224.6C243.012 228.984 233.542 232.762 223.758 235.898L225.359 210.654C232.255 209.171 239.354 207.853 246.751 206.661C250.719 210.677 251.805 218.99 252.078 224.604L252.078 224.6Z" fill="#FFA015"/>
</g>
<defs>
<filter id="filter0_d_326_712" x="0.168457" y="0.46698" width="639.679" height="418.783" filterUnits="userSpaceOnUse" color-interpolation-filters="sRGB">
<feFlood flood-opacity="0" result="BackgroundImageFix"/>
<feColorMatrix in="SourceAlpha" type="matrix" values="0 0 0 0 0 0 0 0 0 0 0 0 0 0 0 0 0 0 127 0" result="hardAlpha"/>
<feOffset dx="-4" dy="4"/>
<feGaussianBlur stdDeviation="4"/>
<feComposite in2="hardAlpha" operator="out"/>
<feColorMatrix type="matrix" values="0 0 0 0 0 0 0 0 0 0 0 0 0 0 0 0 0 0 0.15 0"/>
<feBlend mode="normal" in2="BackgroundImageFix" result="effect1_dropShadow_326_712"/>
<feBlend mode="normal" in="SourceGraphic" in2="effect1_dropShadow_326_712" result="shape"/>
</filter>
<linearGradient id="paint0_linear_326_712" x1="301.128" y1="65.1947" x2="240.814" y2="282.619" gradientUnits="userSpaceOnUse">
<stop stop-color="white"/>
<stop offset="0.025" stop-color="#F6F6F6"/>
<stop offset="0.239" stop-color="#ACACAC"/>
<stop offset="0.441" stop-color="#6F6F6F"/>
<stop offset="0.623" stop-color="#3F3F3F"/>
<stop offset="0.782" stop-color="#1D1D1D"/>
<stop offset="0.914" stop-color="#080808"/>
<stop offset="1"/>
</linearGradient>
</defs>
</svg>
