<svg width="260" height="260" viewBox="0 0 260 260" fill="none" xmlns="http://www.w3.org/2000/svg">
<path d="M169 127.562C169 125.531 168.797 123.703 168.188 121.875C167.578 120.047 166.563 118.625 165.141 117.203C163.719 115.984 162.094 114.969 160.063 114.359C158.438 114.156 156.406 113.75 154.172 113.75C153.969 113.75 153.766 113.75 152.547 113.75C151.734 113.75 150.922 113.75 149.906 113.75C148.891 113.75 147.875 113.75 147.266 113.75H145.641C143.812 113.75 142.391 115.172 142.391 117L142.594 136.906V137.109C142.594 138.937 144.016 140.359 145.844 140.359H152.953C154.984 140.359 157.016 140.156 158.844 139.547C160.672 138.937 162.5 138.328 163.922 137.312C165.547 136.094 166.969 134.672 167.781 133.047C168.594 131.625 169 129.797 169 127.562ZM162.5 127.359C162.5 128.375 162.297 129.391 161.891 130.203C161.484 131.016 160.875 131.625 160.063 132.031C159.047 132.641 158.031 133.047 156.812 133.453C155.594 133.859 154.172 134.062 152.547 134.062H148.687V120.453H149.703C150.719 120.453 151.734 120.453 152.344 120.453H153.969C155.594 120.453 157.219 120.656 158.234 121.062C159.25 121.266 160.062 121.875 160.672 122.281C161.281 122.891 161.687 123.5 161.891 124.312C162.297 125.125 162.5 126.141 162.5 127.359ZM217.547 89.1719H207.594V79.2187C207.594 77.3906 206.172 75.9688 204.344 75.9688C202.516 75.9688 201.094 77.3906 201.094 79.2187V89.1719H191.141C189.312 89.1719 187.891 90.5937 187.891 92.4219C187.891 94.25 189.312 95.6719 191.141 95.6719H201.094V105.625C201.094 107.453 202.516 108.875 204.344 108.875C206.172 108.875 207.594 107.453 207.594 105.625V95.6719H217.547C219.375 95.6719 220.797 94.25 220.797 92.4219C221 90.5937 219.375 89.1719 217.547 89.1719ZM118.422 165.344C117.812 163.922 116.797 161.688 115.375 158.438C113.953 155.188 112.328 150.922 110.297 146.047V145.844C109.688 144.625 109.281 143.812 109.078 143.203V143C108.875 142.391 108.469 141.781 108.266 141.375C101.766 124.719 96.8906 112.937 93.6406 105.625C92.4219 102.781 90.5938 100.547 88.1563 98.9219C85.7188 97.5 82.6719 96.6875 79.0156 96.6875C77.5938 96.6875 76.375 96.8906 74.9531 97.2969C73.7344 97.7031 72.3125 98.1094 71.0938 98.9219C69.6719 99.7344 68.6562 100.547 67.6406 101.562C66.625 102.578 66.0156 103.797 65.4063 105.219L51.7969 138.125C50.375 141.781 48.75 145.438 47.125 149.297C45.5 153.156 43.6719 157.016 41.6406 161.281C40.8281 163.109 40.2188 164.734 39.8125 166.359C39.4063 167.984 39.2031 169.609 39.2031 170.828C39.2031 172.859 39.6094 174.688 40.4219 176.312C41.2344 177.938 42.4531 179.359 44.0781 180.578C45.5 181.594 47.125 182.203 48.75 182.609C50.375 183.016 52.2031 183.219 53.8281 183.219C56.4688 183.219 58.7031 182.609 60.5312 181.187C62.3594 179.766 63.7812 177.938 64.7969 175.5V175.297L68.25 166.156H76.375C82.2656 166.156 85.7188 166.156 87.3438 166.156C88.5625 166.156 89.375 166.156 90.1875 166.156C90.3906 166.766 90.5938 167.578 91 168.391C91.8125 170.422 92.8281 173.062 94.0469 176.109C95.0625 178.547 96.4844 180.375 98.5156 181.594C100.547 182.812 102.984 183.422 105.828 183.422C107.656 183.422 109.484 183.219 111.109 182.609C112.734 182 114.359 181.187 115.578 180.172C117 179.156 118.016 177.938 118.625 176.516C119.438 175.094 119.844 173.672 119.844 172.047C119.844 170.828 119.641 169.609 119.438 168.391C119.438 167.781 119.031 166.562 118.422 165.344ZM113.141 173.875C112.734 174.484 112.328 174.891 111.719 175.5C111.109 176.109 110.297 176.516 109.281 176.719C108.266 177.125 107.25 177.125 106.031 177.125C104.406 177.125 103.188 176.922 102.172 176.312C101.359 175.906 100.75 175.094 100.344 173.875C99.125 170.625 98.1094 168.188 97.2969 166.359C96.6875 164.531 96.0781 163.312 95.875 162.5C95.4688 161.078 94.25 160.062 92.8281 160.062C92.0156 160.062 90.1875 160.062 87.3438 160.062C83.4844 160.062 79.8281 160.062 76.375 160.062H66.0156C64.5938 160.062 63.375 160.875 62.9688 162.297L58.7031 173.672C58.0938 174.891 57.4844 175.906 56.6719 176.516C55.8594 177.125 54.8438 177.328 53.625 177.328C52.4063 177.328 51.1875 177.125 50.1719 176.922C49.1563 176.719 48.1406 176.109 47.3281 175.703C46.7188 175.297 46.1094 174.687 45.9063 174.078C45.5 173.469 45.2969 172.453 45.2969 171.438C45.2969 170.625 45.5 169.609 45.7031 168.594C46.1094 167.375 46.5156 165.953 47.125 164.531C48.9531 160.469 50.7813 156.406 52.6094 152.547C54.4375 148.484 55.8594 144.828 57.2813 141.172L70.6875 108.266C70.8906 107.656 71.2969 107.047 71.7031 106.641C72.1094 106.031 72.7188 105.625 73.5313 105.219C74.3438 104.812 75.1563 104.406 75.9688 104.203C76.7813 104 77.5938 103.797 78.4062 103.797C80.8438 103.797 82.875 104.203 84.2969 105.016C85.5156 105.828 86.5312 106.844 86.9375 108.266C86.9375 108.469 86.9375 108.469 87.1406 108.672C90.1875 115.578 95.0625 127.562 101.766 144.219C101.766 144.422 101.969 144.422 101.969 144.625C102.172 145.031 102.375 145.641 102.781 146.25V146.453C103.188 147.469 103.594 148.078 103.797 148.687C105.828 153.766 107.453 158.031 108.875 161.078C110.297 164.328 111.312 166.766 111.922 168.188C112.328 169 112.531 169.812 112.734 170.625C112.938 171.234 112.938 172.047 112.938 172.656C113.547 173.062 113.344 173.469 113.141 173.875Z" fill="#E48600"/>
<path d="M187.891 163.922C184.641 159.656 181.797 156 179.359 152.953C178.344 151.734 177.531 150.516 176.719 149.5C177.734 148.891 178.547 148.078 179.359 147.469C181.188 145.844 182.812 143.812 184.031 141.578C185.453 139.344 186.469 137.109 187.078 134.672C187.687 132.234 188.094 129.594 188.094 127.156C188.094 122.484 187.281 118.422 185.656 114.766C184.031 111.109 181.594 107.859 178.344 105.219C175.297 102.578 171.641 100.75 167.578 99.3281C163.516 98.1094 159.25 97.5 154.578 97.5C153.562 97.5 151.531 97.5 149.094 97.5C148.078 97.5 147.266 97.5 146.453 97.5H145.031C144.828 97.5 144.828 97.5 144.625 97.5C143.406 97.5 142.391 97.5 141.375 97.7031C139.953 97.7031 138.734 97.9063 137.516 97.9063C135.484 97.9063 133.859 98.3125 132.234 98.9219C130.406 99.5313 128.984 100.344 127.562 101.562C126.141 102.781 124.922 104.203 124.109 105.828C123.297 107.453 123.094 109.281 123.094 111.312C123.094 111.516 123.094 112.328 123.094 113.547C123.094 114.563 123.094 115.578 123.094 116.594C123.094 117.813 123.094 118.828 123.094 119.641C123.094 120.047 123.094 120.859 123.094 121.875C123.094 122.078 123.094 122.078 123.094 122.281C123.094 129.188 123.094 137.719 123.094 147.875C123.094 157.828 123.094 165.75 123.094 171.641C123.094 176.312 124.313 179.766 126.953 181.797C128.172 182.812 129.797 183.422 131.828 183.828C133.453 184.234 135.484 184.234 137.922 184.234H138.125C141.578 184.031 144.422 182.813 146.25 180.578C148.078 178.547 149.094 175.5 149.094 172.047C149.094 171.844 149.094 170.828 149.094 168.594C149.094 167.172 149.094 165.344 149.094 163.109C149.094 160.875 149.094 159.047 149.094 157.625V157.219H150.109C151.125 157.219 152.141 157.219 152.75 157.219C153.562 158.234 154.375 159.656 155.391 161.078C156.812 163.109 158.438 165.547 160.266 168.391L164.328 174.484L166.359 177.531C166.359 177.531 166.359 177.734 166.562 177.734C166.969 178.344 167.578 178.953 167.984 179.563C168.391 179.969 168.797 180.375 169 180.781C169.406 181.188 170.016 181.594 170.625 182C171.031 182.406 171.641 182.609 172.453 183.016C173.266 183.422 174.078 183.625 174.891 183.828C175.703 184.031 176.516 184.031 177.531 184.031C177.734 184.031 177.734 184.031 177.937 184.031C179.562 184.031 181.188 183.625 182.609 183.219C184.234 182.609 185.656 181.797 186.875 180.781C188.297 179.562 189.312 178.344 189.922 176.922C190.734 175.5 190.938 173.875 190.938 172.047C190.938 170.625 190.734 169.203 190.125 167.781C189.719 166.359 188.906 165.141 187.891 163.922ZM183.828 173.875C183.625 174.484 183.016 175.094 182.406 175.5C181.797 176.109 180.984 176.516 179.969 176.922C179.156 177.125 178.141 177.328 177.328 177.531H177.125C176.719 177.531 176.312 177.531 176.109 177.328C175.703 177.328 175.5 177.125 175.094 176.922C174.687 176.719 174.281 176.516 174.078 176.313C173.875 176.109 173.672 176.109 173.672 175.906C173.469 175.703 173.266 175.5 172.859 174.891C172.656 174.484 172.25 174.078 171.641 173.469L169.812 170.625L165.75 164.531C163.922 161.688 162.297 159.25 160.672 157.016C159.25 154.984 158.031 153.359 157.016 151.938C156.406 150.922 155.391 150.312 154.172 150.312H152.547C151.937 150.312 150.922 150.312 149.906 150.312C147.266 150.312 145.844 150.312 145.437 150.312C143.609 150.312 142.188 151.734 142.188 153.562C142.188 153.766 142.188 154.984 142.188 157.422C142.188 159.047 142.188 160.875 142.188 162.906C142.188 165.141 142.188 166.969 142.188 168.391C142.188 169.203 142.188 170.422 142.188 171.844C142.188 173.875 141.781 175.297 140.969 176.109C140.156 176.922 138.937 177.328 137.312 177.531C135.687 177.531 134.266 177.531 133.047 177.328C132.031 177.125 131.422 176.922 131.016 176.516C130.203 175.906 129.594 174.281 129.594 171.641C129.594 162.297 129.594 154.375 129.594 147.875C129.594 141.781 129.594 133.25 129.594 122.281V122.078C129.594 121.875 129.594 121.063 129.594 119.844C129.594 118.828 129.594 117.812 129.594 116.797C129.594 115.578 129.594 114.563 129.594 113.75C129.594 113.344 129.594 112.531 129.594 111.719C129.594 110.703 129.797 109.687 130.203 108.875C130.609 108.062 131.016 107.453 131.625 107.047C132.438 106.438 133.25 106.031 134.266 105.625C135.281 105.219 136.5 105.016 137.922 105.016H138.125C139.547 105.016 140.969 104.812 141.984 104.812C143.203 104.812 144.219 104.609 145.234 104.609H145.437C145.641 104.609 145.641 104.609 147.063 104.609C147.672 104.609 148.687 104.609 149.703 104.609C151.328 104.609 153.156 104.609 155.188 104.609C159.25 104.609 162.906 105.219 166.359 106.234C169.609 107.25 172.453 108.875 174.891 110.906C177.328 112.937 179.156 115.375 180.375 118.016C181.594 120.859 182.203 124.109 182.203 127.766C182.203 129.797 182 131.828 181.391 133.656C180.781 135.484 180.172 137.313 179.156 138.938C178.141 140.563 176.922 142.187 175.703 143.406C174.484 144.625 173.063 145.641 171.438 146.25C171.234 146.25 171.031 146.453 170.828 146.656C169.406 147.672 169 149.703 170.219 151.328C171.234 152.75 172.859 154.781 175.094 157.625C177.125 160.266 179.969 163.922 183.625 168.594C184.234 169.203 184.437 170.016 184.844 170.625C185.047 171.234 185.25 171.844 185.25 172.453C184.234 172.656 184.234 173.266 183.828 173.875ZM89.375 144.016C88.5625 141.172 87.75 138.734 86.7344 136.297C85.3125 132.234 84.5 129.391 83.8906 127.969C83.2812 125.938 82.6719 124.109 82.2656 122.891C81.8594 121.875 81.0469 121.063 80.0313 120.656C78.2031 120.047 76.375 121.063 75.9688 122.891C75.5625 124.312 74.9531 126.141 74.3437 128.172C73.7344 129.797 72.9219 132.438 71.9063 135.891L69.875 142.188L68.25 147.063C68.0469 147.469 68.0469 147.875 68.0469 148.484C68.0469 150.312 69.4687 151.734 71.2969 151.734C73.5312 151.734 76.1719 151.734 79.4219 151.734C82.0625 151.734 84.7031 151.734 87.1406 151.531C87.5469 151.531 87.75 151.531 88.1563 151.328C89.9844 150.922 91 149.094 90.3906 147.266C90.3906 147.062 89.9844 145.844 89.375 144.016ZM79.4219 145.031C78.4062 145.031 77.1875 145.031 75.9688 145.031L76.1719 144.219L78.4062 137.719C78.8125 136.703 79.0156 135.484 79.4219 134.469C79.8281 135.687 80.2344 136.906 80.6406 138.125L82.875 144.828C81.6562 145.031 80.4375 145.031 79.4219 145.031Z" fill="#E48600"/>
</svg>
