<svg width="260" height="260" viewBox="0 0 260 260" fill="none" xmlns="http://www.w3.org/2000/svg">
<path d="M176.429 0C170.278 0.0210955 164.385 2.66179 160.035 7.34564C155.686 12.0295 153.234 18.3761 153.214 25C153.214 31.94 155.898 38.23 160.179 42.77L138.756 81.23C135.894 80.4421 132.954 80.0291 130 80C118.885 80 108.996 85.4 102.18 93.79L97.5 90L91.9286 98L96.9707 102.09C94.3046 107.626 92.8949 113.764 92.8571 120C92.8571 126.4 94.3986 132.37 96.9057 137.75L44.0329 175.7C39.3341 172.01 33.6723 170.015 27.8571 170C12.5357 170 0 183.5 0 200C0 216.51 12.5357 230 27.8571 230C43.1786 230 55.7143 216.51 55.7143 200C55.7143 193.66 53.8571 187.78 50.7 182.93L102.069 146.05C108.894 154.52 118.82 160 130 160C135.98 160 141.561 158.31 146.575 155.59L150.187 161.05L157.746 155.23L154.264 150.02C162.091 142.68 167.143 132.01 167.143 120C167.143 119.8 167.087 119.6 167.087 119.4L225.94 110.94C229.274 116.37 234.975 120 241.429 120C251.634 120 260 110.99 260 100C260 89.01 251.634 80 241.429 80C231.224 80 222.857 89.01 222.857 100C222.857 100.44 222.95 100.85 222.987 101.29L165.676 109.51C164.345 104.31 162.05 99.4546 158.931 95.2355C155.811 91.0163 151.93 87.5209 147.522 84.96L167.997 48.22C170.616 49.34 173.448 50 176.429 50C189.196 50 199.643 38.75 199.643 25C199.643 11.25 189.196 0 176.429 0ZM176.429 10C184.173 10 190.357 16.66 190.357 25C190.357 33.34 184.173 40 176.429 40C168.684 40 162.5 33.34 162.5 25C162.5 16.66 168.684 10 176.429 10ZM55.7143 40C45.5093 40 37.1429 49.01 37.1429 60C37.1429 70.99 45.5093 80 55.7143 80C59.3821 80 62.7807 78.8 65.6686 76.8L69.6429 80L75.2143 72.01L71.9829 69.39C73.4036 66.58 74.2857 63.41 74.2857 60C74.2857 49.01 65.9193 40 55.7143 40ZM55.7143 50C60.8957 50 65 54.42 65 60C65 65.58 60.8957 70 55.7143 70C50.5329 70 46.4286 65.58 46.4286 60C46.4286 54.42 50.5329 50 55.7143 50ZM82.6429 78L77.0714 86.02L84.5 92.02L90.0714 84L82.6429 78ZM130 90C145.442 90 157.857 103.37 157.857 120C157.857 136.63 145.442 150 130 150C114.558 150 102.143 136.63 102.143 120C102.143 103.37 114.558 90 130 90ZM241.429 90C246.61 90 250.714 94.42 250.714 100C250.714 105.58 246.61 110 241.429 110C236.247 110 232.143 105.58 232.143 100C232.143 94.42 236.247 90 241.429 90ZM163.15 163.38L155.591 169.2L160.977 177.32L168.536 171.52L163.15 163.38V163.38ZM173.94 179.65L166.381 185.47L171.786 193.59L179.335 187.79L173.949 179.65H173.94ZM27.8571 180C38.1643 180 46.4286 188.9 46.4286 200C46.4286 211.1 38.1643 220 27.8571 220C17.55 220 9.28571 211.1 9.28571 200C9.28571 188.9 17.55 180 27.8571 180ZM184.739 195.92L177.171 201.74L182.576 209.88L190.125 204.06L184.739 195.92ZM208.929 210C204.571 210.012 200.306 211.362 196.634 213.89L195.52 212.21L187.961 218.01L189.846 220.84C187.159 224.995 185.717 229.936 185.714 235C185.714 248.75 196.161 260 208.929 260C221.696 260 232.143 248.75 232.143 235C232.143 221.25 221.696 210 208.929 210ZM208.929 220C216.673 220 222.857 226.66 222.857 235C222.857 243.34 216.673 250 208.929 250C201.184 250 195 243.34 195 235C195 226.66 201.184 220 208.929 220Z" fill="url(#paint0_linear_40_2514)"/>
<defs>
<linearGradient id="paint0_linear_40_2514" x1="0" y1="130" x2="241.429" y2="130" gradientUnits="userSpaceOnUse">
<stop stop-color="#E48600"/>
<stop offset="1" stop-color="#FE9526"/>
</linearGradient>
</defs>
</svg>
