<svg width="260" height="260" viewBox="0 0 260 260" fill="none" xmlns="http://www.w3.org/2000/svg">
<path d="M150.02 121.188L158.478 109.407C158.789 108.974 159.012 108.483 159.133 107.964C159.255 107.444 159.273 106.906 159.186 106.379C159.1 105.853 158.91 105.349 158.629 104.896C158.347 104.442 157.979 104.049 157.546 103.738C157.112 103.427 156.622 103.204 156.102 103.083C155.583 102.961 155.045 102.943 154.518 103.03C153.992 103.117 153.487 103.306 153.034 103.587C152.581 103.869 152.188 104.237 151.877 104.67L143.301 116.618C130.284 108.688 114.205 103.594 96.3097 103.594C78.4672 103.594 62.4284 108.66 49.4325 116.553L40.9053 104.674C40.5943 104.241 40.2009 103.873 39.7477 103.591C39.2945 103.31 38.7902 103.121 38.2638 103.034C37.7374 102.947 37.199 102.965 36.6795 103.087C36.16 103.208 35.6696 103.431 35.2361 103.742C34.8026 104.053 34.4347 104.446 34.1532 104.9C33.8718 105.353 33.6824 105.857 33.5958 106.383C33.5092 106.91 33.5272 107.448 33.6486 107.968C33.7701 108.487 33.9927 108.978 34.3038 109.411L42.705 121.111C26.2966 133.392 16.25 150.39 16.25 166.404C16.25 193.464 43.1844 207.187 96.3097 207.187C149.431 207.187 176.369 193.464 176.369 166.4C176.369 150.422 166.363 133.469 150.02 121.188ZM96.3097 199.062C48.5753 199.062 24.375 188.073 24.375 166.4C24.375 141.115 55.7984 111.719 96.3097 111.719C136.821 111.719 168.244 141.115 168.244 166.408C168.244 188.077 144.04 199.066 96.3097 199.066V199.062Z" fill="#E48600"/>
<path d="M96.3096 123.922C63.5984 123.922 34.4946 146.266 34.4946 163.881C34.4946 179.124 55.2946 186.85 96.3096 186.85C137.325 186.85 158.121 179.124 158.121 163.881C158.121 146.266 129.017 123.922 96.3096 123.922ZM96.3096 178.725C63.1921 178.725 42.6196 173.038 42.6196 163.881C42.6196 153.266 65.8328 132.047 96.3096 132.047C126.787 132.047 149.996 153.266 149.996 163.881C149.996 173.176 129.927 178.725 96.3096 178.725Z" fill="#E48600"/>
<path d="M71.2889 149.675C68.663 149.664 66.0727 150.283 63.7357 151.48C61.3987 152.678 59.3831 154.419 57.8583 156.557C57.2377 157.437 56.9924 158.529 57.1764 159.59C57.3604 160.652 57.9586 161.597 58.8394 162.218C59.7202 162.838 60.8115 163.084 61.8731 162.9C62.9348 162.716 63.8799 162.117 64.5005 161.237C66.0442 159.051 68.5142 157.8 71.2849 157.8C74.0636 157.8 76.5377 159.051 78.0814 161.237C78.3878 161.673 78.7775 162.046 79.228 162.332C79.6785 162.618 80.1811 162.812 80.7068 162.903C81.2326 162.994 81.7712 162.981 82.2918 162.864C82.8124 162.747 83.3047 162.528 83.7405 162.22C84.1768 161.912 84.5482 161.522 84.8335 161.071C85.1188 160.62 85.3125 160.117 85.4034 159.591C85.4943 159.065 85.4807 158.526 85.3634 158.006C85.2461 157.485 85.0273 156.993 84.7195 156.557C83.1947 154.419 81.1791 152.678 78.8421 151.48C76.5051 150.283 73.9149 149.664 71.2889 149.675ZM121.327 149.675C118.701 149.664 116.112 150.284 113.776 151.481C111.44 152.679 109.425 154.419 107.9 156.557C107.314 157.438 107.095 158.513 107.289 159.553C107.484 160.594 108.077 161.517 108.942 162.127C109.807 162.737 110.876 162.985 111.921 162.819C112.966 162.652 113.905 162.085 114.538 161.237C116.082 159.051 118.556 157.8 121.327 157.8C124.101 157.8 126.575 159.051 128.119 161.237C128.426 161.673 128.815 162.046 129.266 162.332C129.716 162.618 130.219 162.812 130.745 162.903C131.27 162.994 131.809 162.981 132.33 162.864C132.85 162.747 133.342 162.528 133.778 162.22C134.215 161.912 134.586 161.522 134.871 161.071C135.157 160.62 135.35 160.117 135.441 159.591C135.532 159.065 135.519 158.526 135.401 158.006C135.284 157.485 135.065 156.993 134.757 156.557C133.233 154.419 131.217 152.678 128.88 151.48C126.543 150.283 123.953 149.664 121.327 149.675ZM201.419 52.8125C178.072 52.8125 159.08 66.4706 159.08 83.265C159.08 90.2484 162.354 96.9637 168.338 102.338L170.804 121.55L191.864 112.897C196.597 113.612 197.064 113.628 201.33 113.722C214.663 113.986 227.411 109.464 235.442 101.599C240.874 96.2772 243.75 89.9356 243.75 83.265C243.75 66.4706 224.758 52.8125 201.415 52.8125H201.419ZM229.759 95.7938C223.251 102.164 212.672 105.804 201.5 105.597C197.356 105.515 197.356 105.515 191.97 104.695L190.856 104.524L177.515 110.008L175.992 98.15L174.736 97.1263C171.304 94.3191 167.205 89.635 167.205 83.265C167.205 70.9556 182.553 60.9375 201.419 60.9375C220.277 60.9375 235.625 70.9556 235.625 83.265C235.625 87.7013 233.594 92.0278 229.755 95.7938H229.759Z" fill="#E48600"/>
<path d="M185.262 87.8516C188.067 87.8516 190.34 85.578 190.34 82.7734C190.34 79.9689 188.067 77.6953 185.262 77.6953C182.458 77.6953 180.184 79.9689 180.184 82.7734C180.184 85.578 182.458 87.8516 185.262 87.8516Z" fill="#E48600"/>
<path d="M201.411 87.8516C204.215 87.8516 206.489 85.578 206.489 82.7734C206.489 79.9689 204.215 77.6953 201.411 77.6953C198.606 77.6953 196.333 79.9689 196.333 82.7734C196.333 85.578 198.606 87.8516 201.411 87.8516Z" fill="#E48600"/>
<path d="M217.563 87.8516C220.368 87.8516 222.641 85.578 222.641 82.7734C222.641 79.9689 220.368 77.6953 217.563 77.6953C214.758 77.6953 212.485 79.9689 212.485 82.7734C212.485 85.578 214.758 87.8516 217.563 87.8516Z" fill="#E48600"/>
</svg>
