<svg width="260" height="260" viewBox="0 0 260 260" fill="none" xmlns="http://www.w3.org/2000/svg">
<path d="M252.252 130.176L252.248 130.158C252.232 130.1 252.219 130.042 252.203 129.984C252.185 129.917 252.165 129.851 252.142 129.786C250.764 124.99 247.555 120.929 243.208 118.478L226.371 109.009C223.527 107.408 220.318 106.566 217.054 106.564H195.67V87.4402C195.667 84.4527 194.479 81.5885 192.366 79.476C190.254 77.3635 187.389 76.1752 184.402 76.1719H86.257C83.2689 76.1747 80.4038 77.3626 78.2904 79.4751C76.177 81.5876 74.9878 84.4521 74.9836 87.4402V100.486H47.4703C45.6658 100.486 43.9018 101.021 42.4014 102.023C40.9009 103.026 39.7312 104.451 39.0403 106.118C38.3494 107.785 38.1681 109.619 38.5195 111.389C38.8709 113.159 39.7392 114.785 41.0145 116.062C41.8589 116.914 42.8647 117.59 43.973 118.051C45.0814 118.511 46.2702 118.746 47.4703 118.742H74.9836V121.586H29.5902C27.1709 121.588 24.8515 122.551 23.1407 124.261C21.43 125.972 20.4677 128.292 20.4648 130.711C20.4652 133.131 21.4266 135.453 23.1377 137.165C24.8489 138.877 27.1697 139.84 29.5902 139.841H74.9836V145.549H16.2348C13.8154 145.552 11.496 146.514 9.78526 148.225C8.07453 149.936 7.1122 152.255 7.10938 154.675C7.11126 157.094 8.07328 159.414 9.78422 161.125C11.4952 162.836 13.8151 163.798 16.2348 163.8H83.0406C82.9929 164.332 82.9682 164.866 82.9664 165.4C82.963 169.958 84.6556 174.355 87.715 177.734H63.2049C62.3968 177.734 61.6218 178.055 61.0504 178.627C60.479 179.198 60.158 179.973 60.158 180.781C60.158 181.589 60.479 182.364 61.0504 182.936C61.6218 183.507 62.3968 183.828 63.2049 183.828H239.151C239.959 183.828 240.734 183.507 241.305 182.936C241.877 182.364 242.198 181.589 242.198 180.781C242.198 179.973 241.877 179.198 241.305 178.627C240.734 178.055 239.959 177.734 239.151 177.734H228.823C231.884 174.355 233.577 169.958 233.573 165.4C233.571 164.866 233.547 164.332 233.499 163.8H249.844C250.652 163.8 251.427 163.479 251.998 162.908C252.57 162.336 252.891 161.561 252.891 160.753C252.891 160.753 252.668 131.743 252.252 130.176ZM217.054 112.657C219.271 112.658 221.45 113.229 223.381 114.317L240.221 123.788C241.942 124.757 243.417 126.108 244.532 127.739H195.67V112.657H217.054ZM201.471 177.734H115.065C118.124 174.355 119.817 169.958 119.813 165.4C119.813 164.863 119.785 164.33 119.739 163.8H196.796C196.748 164.332 196.724 164.866 196.722 165.4C196.718 169.958 198.411 174.355 201.471 177.734ZM81.0773 87.4402C81.0796 86.0677 81.6262 84.752 82.5973 83.782C83.5683 82.8119 84.8845 82.2666 86.257 82.2656H184.402C185.774 82.267 187.089 82.8126 188.059 83.7827C189.03 84.7529 189.575 86.0683 189.577 87.4402V100.486H81.0773V87.4402ZM14.0882 156.812C13.8062 156.533 13.5827 156.2 13.4307 155.833C13.2788 155.465 13.2014 155.072 13.2031 154.675C13.2041 153.871 13.5238 153.1 14.0921 152.532C14.6604 151.964 15.431 151.644 16.2348 151.643H78.0305C78.8386 151.643 79.6135 151.322 80.1849 150.751C80.7563 150.179 81.0773 149.404 81.0773 148.596V136.795C81.0773 135.986 80.7563 135.211 80.1849 134.64C79.6135 134.069 78.8386 133.748 78.0305 133.748H29.5902C28.7859 133.746 28.015 133.425 27.4467 132.856C26.8784 132.287 26.559 131.515 26.5586 130.711C26.5595 129.907 26.8792 129.137 27.4476 128.568C28.0159 128 28.7865 127.68 29.5902 127.679H78.0305C78.8386 127.679 79.6135 127.358 80.1849 126.787C80.7563 126.215 81.0773 125.44 81.0773 124.632V115.695C81.0773 114.887 80.7563 114.112 80.1849 113.54C79.6135 112.969 78.8386 112.648 78.0305 112.648H47.4703C46.666 112.646 45.8953 112.325 45.327 111.756C44.7588 111.187 44.4393 110.416 44.4387 109.611C44.4396 108.808 44.7593 108.037 45.3277 107.469C45.896 106.9 46.6666 106.581 47.4703 106.58H189.577V157.706H118.135C116.662 154.504 114.301 151.791 111.333 149.89C108.365 147.988 104.914 146.977 101.389 146.977C97.8644 146.977 94.4133 147.988 91.4453 149.89C88.4772 151.791 86.1166 154.504 84.6432 157.706H16.2348C15.8355 157.707 15.4401 157.629 15.0715 157.476C14.7029 157.322 14.3687 157.097 14.0882 156.812ZM89.0602 165.4C89.0612 162.961 89.7851 160.578 91.1405 158.551C92.496 156.524 94.4219 154.945 96.675 154.012C98.928 153.08 101.407 152.836 103.798 153.313C106.19 153.789 108.386 154.964 110.11 156.688C111.834 158.413 113.008 160.61 113.483 163.001C113.958 165.393 113.714 167.872 112.781 170.124C111.847 172.377 110.267 174.302 108.239 175.657C106.212 177.011 103.828 177.734 101.39 177.734C99.7665 177.748 98.1567 177.438 96.6543 176.823C95.152 176.208 93.7871 175.3 92.6394 174.151C91.4917 173.003 90.5842 171.638 89.9696 170.136C89.3551 168.633 89.0459 167.023 89.0602 165.4ZM202.816 165.4C202.816 162.961 203.54 160.576 204.896 158.549C206.251 156.521 208.177 154.941 210.431 154.008C212.685 153.075 215.164 152.831 217.557 153.307C219.949 153.784 222.146 154.959 223.87 156.684C225.594 158.409 226.768 160.607 227.244 162.999C227.719 165.391 227.474 167.871 226.54 170.124C225.606 172.377 224.025 174.303 221.997 175.658C219.969 177.012 217.584 177.735 215.145 177.734C213.522 177.747 211.912 177.437 210.41 176.821C208.908 176.206 207.544 175.298 206.397 174.15C205.249 173.002 204.341 171.637 203.727 170.134C203.112 168.632 202.802 167.023 202.816 165.4ZM246.797 157.706H231.895C230.422 154.504 228.061 151.79 225.092 149.889C222.124 147.987 218.672 146.976 215.147 146.976C211.621 146.976 208.17 147.987 205.201 149.889C202.233 151.79 199.872 154.504 198.398 157.706H195.67V133.834H246.733C246.771 134.232 246.797 134.633 246.797 135.038V157.706Z" fill="#E48600"/>
<path d="M101.39 156.594C99.6477 156.594 97.9446 157.11 96.496 158.078C95.0473 159.046 93.9182 160.422 93.2515 162.031C92.5847 163.641 92.4102 165.412 92.75 167.12C93.0898 168.829 93.9287 170.399 95.1606 171.631C96.3925 172.863 97.962 173.702 99.6707 174.041C101.379 174.381 103.151 174.207 104.76 173.54C106.37 172.874 107.745 171.745 108.713 170.296C109.681 168.848 110.198 167.144 110.198 165.402C110.195 163.067 109.266 160.828 107.615 159.177C105.964 157.526 103.725 156.597 101.39 156.594ZM101.39 168.117C100.853 168.117 100.328 167.958 99.8815 167.66C99.435 167.362 99.0869 166.938 98.8814 166.442C98.6758 165.945 98.622 165.4 98.7267 164.873C98.8314 164.346 99.0899 163.863 99.4695 163.483C99.8492 163.103 100.333 162.845 100.86 162.74C101.386 162.635 101.932 162.689 102.428 162.894C102.924 163.1 103.348 163.448 103.647 163.894C103.945 164.34 104.104 164.865 104.104 165.402C104.103 166.122 103.817 166.812 103.308 167.321C102.799 167.83 102.11 168.116 101.39 168.117ZM215.147 156.594C213.405 156.594 211.702 157.11 210.254 158.078C208.805 159.046 207.676 160.422 207.009 162.031C206.343 163.641 206.168 165.412 206.508 167.121C206.848 168.829 207.687 170.399 208.919 171.631C210.151 172.863 211.72 173.702 213.429 174.042C215.138 174.381 216.909 174.207 218.518 173.54C220.128 172.874 221.504 171.745 222.471 170.296C223.439 168.847 223.956 167.144 223.956 165.402C223.953 163.067 223.025 160.828 221.373 159.177C219.722 157.525 217.483 156.596 215.147 156.594ZM215.147 168.117C214.611 168.117 214.086 167.958 213.639 167.66C213.193 167.361 212.845 166.937 212.639 166.441C212.434 165.945 212.38 165.399 212.485 164.873C212.59 164.346 212.848 163.862 213.228 163.483C213.607 163.103 214.091 162.844 214.618 162.74C215.144 162.635 215.69 162.689 216.186 162.894C216.682 163.1 217.106 163.448 217.405 163.894C217.703 164.34 217.862 164.865 217.862 165.402C217.861 166.122 217.575 166.812 217.066 167.321C216.557 167.83 215.867 168.116 215.147 168.117ZM47.1118 177.734H23.5117C22.7036 177.734 21.9287 178.056 21.3573 178.627C20.7859 179.198 20.4648 179.973 20.4648 180.781C20.4648 181.589 20.7859 182.364 21.3573 182.936C21.9287 183.507 22.7036 183.828 23.5117 183.828H47.1118C47.9199 183.828 48.6949 183.507 49.2663 182.936C49.8377 182.364 50.1587 181.589 50.1587 180.781C50.1587 179.973 49.8377 179.198 49.2663 178.627C48.6949 178.056 47.9199 177.734 47.1118 177.734Z" fill="#E48600"/>
</svg>
