<svg width="260" height="260" viewBox="0 0 260 260" fill="none" xmlns="http://www.w3.org/2000/svg">
<path d="M130 199.062C138.975 199.062 146.25 191.787 146.25 182.812C146.25 173.838 138.975 166.562 130 166.562C121.025 166.562 113.75 173.838 113.75 182.812C113.75 191.787 121.025 199.062 130 199.062Z" fill="#E48600"/>
<path d="M101.563 215.313V251.875H158.438V215.313C158.438 211.003 156.725 206.87 153.678 203.822C150.631 200.775 146.497 199.063 142.188 199.063H117.813C113.503 199.063 109.37 200.775 106.322 203.822C103.275 206.87 101.563 211.003 101.563 215.313ZM167.343 63.5215L155.854 52.0327L151.592 56.2943C150.321 57.5658 148.391 57.7608 146.794 56.9321C144.954 55.9748 143.035 55.1769 141.058 54.5474C139.348 54.003 138.125 52.504 138.125 50.7083V44.6877H121.875V50.7083C121.875 52.504 120.652 54.003 118.942 54.5474C116.951 55.1812 115.034 55.9815 113.206 56.9321C111.609 57.7608 109.679 57.5658 108.408 56.2943L104.146 52.0327L92.6575 63.5215L96.9191 67.783C98.1906 69.0546 98.3856 70.9843 97.5569 72.5808C96.6063 74.409 95.806 76.3265 95.1722 78.3171C94.6278 80.0274 93.1288 81.2502 91.3331 81.2502H85.3125V97.5002H91.3331C93.1288 97.5002 94.6278 98.723 95.1722 100.433C95.806 102.424 96.6063 104.341 97.5569 106.17C98.3856 107.766 98.1906 109.696 96.9191 110.967L92.6575 115.229L104.146 126.718L108.408 122.456C109.679 121.185 111.609 120.99 113.206 121.818C115.034 122.769 116.951 123.569 118.942 124.203C120.652 124.747 121.875 126.246 121.875 128.038V134.063H138.125V128.038C138.125 126.242 139.348 124.743 141.058 124.199C143.049 123.565 144.966 122.765 146.794 121.814C148.391 120.986 150.321 121.181 151.592 122.452L155.854 126.714L167.343 115.225L163.081 110.963C161.809 109.692 161.614 107.762 162.443 106.166C163.394 104.337 164.194 102.42 164.828 100.429C165.372 98.723 166.871 97.5002 168.667 97.5002H174.688V81.2502H168.667C166.871 81.2502 165.372 80.0274 164.828 78.3171C164.198 76.3404 163.4 74.4213 162.443 72.5808C161.614 70.9843 161.809 69.0546 163.081 67.783L167.343 63.5215V63.5215ZM130 109.688C127.332 109.687 124.691 109.162 122.226 108.141C119.762 107.119 117.522 105.623 115.636 103.736C111.827 99.9262 109.687 94.7589 109.688 89.3712C109.688 83.9834 111.829 78.8165 115.639 75.0072C119.449 71.1979 124.616 69.0581 130.004 69.0587C135.392 69.0592 140.559 71.2 144.368 75.0101C148.177 78.8202 150.317 83.9875 150.317 89.3752C150.316 94.763 148.175 99.9298 144.365 103.739C140.555 107.549 135.388 109.688 130 109.688V109.688ZM186.875 12.1877L181.854 22.8843L170.625 24.6027L178.75 32.9308L176.833 44.6877L186.875 39.1343L196.918 44.6877L195 32.9308L203.125 24.6027L191.896 22.8843L186.875 12.1877ZM199.505 58.683C204.584 68.8421 207.215 80.0487 207.188 91.4065C207.188 94.6199 206.976 97.8577 206.562 101.035L214.614 102.095C215.077 98.5687 215.313 94.9733 215.313 91.4065C215.313 78.6665 212.444 66.4383 206.781 55.0674L199.505 58.683V58.683ZM83.1147 21.8199L87.5103 28.653C100.187 20.5204 114.939 16.2142 130 16.2502C140.745 16.2502 151.145 18.3587 160.908 22.5146L164.088 15.0396C153.311 10.4514 141.714 8.09909 130 8.12522C113.38 8.08791 97.1016 12.8427 83.1147 21.8199V21.8199ZM44.6875 91.4065C44.6875 96.4277 45.1466 101.461 46.0606 106.369L54.0516 104.886C53.2277 100.44 52.813 95.928 52.8125 91.4065C52.8125 84.1955 53.8566 77.074 55.9163 70.2368L48.1406 67.8927C45.8452 75.5194 44.6817 83.4418 44.6875 91.4065V91.4065ZM70.3178 150.914C79.9866 160.128 91.667 166.965 104.435 170.885L106.815 163.118C95.2585 159.57 84.6855 153.382 75.9322 145.044L70.3178 150.914V150.914ZM153.185 163.114L155.565 170.881C171.062 166.16 184.894 157.123 195.443 144.828L189.276 139.539C179.73 150.667 167.211 158.844 153.185 163.114V163.114ZM52.8125 32.5002H77.1875V56.8752H52.8125V32.5002Z" fill="#E48600"/>
<path d="M203.125 134.062C209.856 134.062 215.312 128.606 215.312 121.875C215.312 115.144 209.856 109.688 203.125 109.688C196.394 109.688 190.938 115.144 190.938 121.875C190.938 128.606 196.394 134.062 203.125 134.062Z" fill="#E48600"/>
<path d="M73.125 138.125L56.875 113.75L40.625 138.125H73.125Z" fill="#E48600"/>
</svg>
