<svg width="260" height="260" viewBox="0 0 260 260" fill="none" xmlns="http://www.w3.org/2000/svg">
<path d="M101.562 113.75C106.05 113.75 109.688 110.112 109.688 105.625C109.688 101.138 106.05 97.5 101.562 97.5C97.0752 97.5 93.4375 101.138 93.4375 105.625C93.4375 110.112 97.0752 113.75 101.562 113.75Z" fill="#E48600"/>
<path d="M230.34 212.408C231.103 210.819 231.562 209.064 231.562 207.188C231.562 200.468 226.094 195 219.375 195C214.086 195 209.617 198.408 207.935 203.125H186.123C184.897 199.684 182.187 196.974 178.746 195.748V184.494L205.993 157.247C206.761 156.488 207.188 155.456 207.188 154.375V137.378C211.904 135.696 215.312 131.227 215.312 125.938C215.312 119.218 209.844 113.75 203.125 113.75C197.836 113.75 193.367 117.158 191.685 121.875H174.688C172.445 121.875 170.625 123.691 170.625 125.938V138.873C165.908 140.554 162.5 145.023 162.5 150.313C162.5 155.602 165.908 160.071 170.625 161.753V178.75H165.815C164.588 175.309 161.878 172.599 158.438 171.373V117.065C160.363 116.378 162.049 115.241 163.394 113.75H178.75C179.827 113.75 180.863 113.323 181.622 112.56L185.685 108.497C186.448 107.738 186.875 106.706 186.875 105.625V101.563H207.935C209.617 106.279 214.086 109.688 219.375 109.688C226.094 109.688 231.562 104.219 231.562 97.5C231.562 90.7807 226.094 85.3125 219.375 85.3125C214.086 85.3125 209.617 88.721 207.935 93.4375H199.062V68.315C203.779 66.6332 207.188 62.1644 207.188 56.875C207.188 50.1557 201.719 44.6875 195 44.6875C193.123 44.6875 191.368 45.1466 189.78 45.9104L161.31 17.4404C160.55 16.6766 159.514 16.25 158.438 16.25H130H73.125C69.7897 16.25 66.7428 14.1335 65.5484 10.985C64.8781 9.22598 63.0947 8.16973 61.2137 8.4013C53.7672 9.40067 46.8772 13.4185 42.3231 19.4269C37.7203 25.4882 35.7744 33.0322 36.8469 40.6697C38.35 51.2688 45.9469 59.9666 56.1113 63.3872C53.9622 70.5657 52.8125 77.9107 52.8125 85.3125H48.75C37.5497 85.3125 28.4375 94.4247 28.4375 105.625C28.4375 116.825 37.5497 125.938 48.75 125.938H53.2472C55.9691 151.824 71.5325 173.932 93.4375 185.766V203.125H36.5625C20.8813 203.125 8.125 215.885 8.125 231.563V251.875H16.25V231.563C16.25 220.362 25.3622 211.25 36.5625 211.25H96.3341L125.938 229.751V251.875H130H134.062H150.312C151.389 251.875 152.425 251.448 153.185 250.685L166.562 237.307L171.815 242.56C172.575 243.323 173.611 243.75 174.688 243.75H187.622C189.304 248.467 193.773 251.875 199.062 251.875C205.782 251.875 211.25 246.407 211.25 239.688C211.25 234.398 207.842 229.929 203.125 228.248V211.25H207.935C209.617 215.967 214.086 219.375 219.375 219.375C221.252 219.375 223.007 218.916 224.595 218.152L229.881 223.438L224.628 228.69C223.864 229.45 223.438 230.482 223.438 231.563V251.875H231.562V233.244L235.625 229.182L243.75 237.307V251.875H251.875V235.625C251.875 234.544 251.448 233.513 250.685 232.753L230.34 212.408ZM163.247 203.125H134.062V190.938V186.875H142.935C144.617 191.592 149.086 195 154.375 195C159.664 195 164.133 191.592 165.815 186.875H170.625V195.748C167.184 196.974 164.474 199.684 163.247 203.125ZM142.935 52.8125C144.162 56.2535 146.872 58.9632 150.312 60.19V77.1875H134.062V60.9375V52.8125H142.935ZM150.312 48.75C150.312 46.5075 152.137 44.6875 154.375 44.6875C156.613 44.6875 158.438 46.5075 158.438 48.75C158.438 50.9925 156.613 52.8125 154.375 52.8125C152.137 52.8125 150.312 50.9925 150.312 48.75ZM142.935 109.688C144.162 113.128 146.872 115.838 150.312 117.065V134.063H134.062V109.688H142.935ZM158.438 182.813C158.438 185.055 156.613 186.875 154.375 186.875C152.137 186.875 150.312 185.055 150.312 182.813C150.312 180.57 152.137 178.75 154.375 178.75C156.613 178.75 158.438 180.57 158.438 182.813ZM142.935 178.75H134.062V142.188H150.312V171.373C146.872 172.599 144.162 175.309 142.935 178.75ZM178.75 207.188C178.75 209.43 176.926 211.25 174.688 211.25C172.449 211.25 170.625 209.43 170.625 207.188C170.625 204.945 172.449 203.125 174.688 203.125C176.926 203.125 178.75 204.945 178.75 207.188ZM203.125 121.875C205.363 121.875 207.188 123.695 207.188 125.938C207.188 128.18 205.363 130 203.125 130C200.887 130 199.062 128.18 199.062 125.938C199.062 123.695 200.887 121.875 203.125 121.875ZM191.685 130C192.912 133.441 195.622 136.151 199.062 137.378V152.693L178.75 173.006V161.753C183.467 160.071 186.875 155.602 186.875 150.313C186.875 145.023 183.467 140.554 178.75 138.873V130H191.685ZM174.688 146.25C176.926 146.25 178.75 148.07 178.75 150.313C178.75 152.555 176.926 154.375 174.688 154.375C172.449 154.375 170.625 152.555 170.625 150.313C170.625 148.07 172.449 146.25 174.688 146.25ZM154.375 109.688C152.137 109.688 150.312 107.868 150.312 105.625C150.312 103.383 152.137 101.563 154.375 101.563C156.613 101.563 158.438 103.383 158.438 105.625C158.438 107.868 156.613 109.688 154.375 109.688ZM177.068 105.625H166.562C166.562 98.9057 161.094 93.4375 154.375 93.4375C149.086 93.4375 144.617 96.846 142.935 101.563H134.062V85.3125H164.881L178.75 99.1819V103.943L177.068 105.625ZM219.375 93.4375C221.613 93.4375 223.438 95.2575 223.438 97.5C223.438 99.7425 221.613 101.563 219.375 101.563C217.137 101.563 215.312 99.7425 215.312 97.5C215.312 95.2575 217.137 93.4375 219.375 93.4375ZM199.062 56.875C199.062 59.1175 197.238 60.9375 195 60.9375C192.762 60.9375 190.938 59.1175 190.938 56.875C190.938 54.6325 192.762 52.8125 195 52.8125C197.238 52.8125 199.062 54.6325 199.062 56.875ZM184.035 51.6547C183.272 53.2432 182.812 54.9982 182.812 56.875C182.812 62.1644 186.221 66.6332 190.938 68.315V93.4375H184.494L169.435 78.3779C168.675 77.6141 167.639 77.1875 166.562 77.1875H158.438V60.19C163.154 58.5082 166.562 54.0394 166.562 48.75C166.562 42.0307 161.094 36.5625 154.375 36.5625C149.086 36.5625 144.617 39.971 142.935 44.6875H134.062V24.375H156.756L184.035 51.6547ZM44.8906 39.5322C44.1228 34.06 45.5081 28.661 48.7906 24.3385C51.5288 20.7269 55.2825 18.1879 59.5562 17.0097C62.5259 21.5191 67.6244 24.375 73.125 24.375H125.938V56.875H65.8531C64.7644 56.875 63.6512 56.7857 62.6112 56.6232C62.4975 56.5988 62.3878 56.5866 62.3147 56.5785C62.205 56.5622 62.0831 56.5419 61.9897 56.5297C52.975 54.9047 46.1012 48.0675 44.8906 39.5322ZM48.75 117.813C42.0306 117.813 36.5625 112.344 36.5625 105.625C36.5625 98.9057 42.0306 93.4375 48.75 93.4375H52.8125V117.813H48.75ZM60.9375 117.813V89.375V85.3125C60.9375 78.4469 61.9897 71.6057 64.0656 64.9432C64.6628 64.9797 65.26 65 65.8531 65H125.938V186.757C89.7406 184.645 60.9375 154.529 60.9375 117.813ZM125.938 194.793V220.171L101.562 204.933V189.503C109.172 192.534 117.37 194.346 125.938 194.793ZM148.631 243.75H134.062V227.5H156.756L160.818 231.563L148.631 243.75ZM199.062 243.75C196.824 243.75 195 241.93 195 239.688C195 237.445 196.824 235.625 199.062 235.625C201.301 235.625 203.125 237.445 203.125 239.688C203.125 241.93 201.301 243.75 199.062 243.75ZM195 228.248C191.559 229.474 188.849 232.184 187.622 235.625H176.369L161.31 220.565C160.55 219.802 159.514 219.375 158.438 219.375H134.062V211.25H163.247C164.929 215.967 169.398 219.375 174.688 219.375C179.977 219.375 184.446 215.967 186.128 211.25H195V228.248ZM215.312 207.188C215.312 204.945 217.137 203.125 219.375 203.125C221.613 203.125 223.438 204.945 223.438 207.188C223.438 209.43 221.613 211.25 219.375 211.25C217.137 211.25 215.312 209.43 215.312 207.188Z" fill="#E48600"/>
</svg>
