<svg width="260" height="260" viewBox="0 0 260 260" fill="none" xmlns="http://www.w3.org/2000/svg">
<path d="M242.667 184.514C242.689 195.178 236.94 206.057 225.597 217.313L216.093 227.245L213.802 238.621C213.68 239.225 213.44 239.8 213.096 240.312C212.752 240.823 212.31 241.262 211.797 241.603C211.283 241.945 210.707 242.181 210.102 242.3C209.497 242.418 208.874 242.417 208.27 242.295C207.666 242.173 207.091 241.933 206.579 241.589C206.068 241.245 205.629 240.803 205.287 240.29C204.946 239.776 204.71 239.2 204.591 238.595C204.472 237.99 204.474 237.367 204.596 236.763L207.158 224.054C207.337 223.183 207.753 222.378 208.368 221.735L218.9 210.734C228.349 201.349 233.302 192.476 233.302 184.981L229.726 149.528C229.704 147.218 228.888 145.337 227.519 144.033C226.351 142.924 224.898 142.323 223.454 142.376C223.278 142.382 223.108 142.41 222.937 142.426C222.689 142.454 222.443 142.482 222.202 142.538C222.071 142.572 221.954 142.611 221.834 142.65C221.566 142.728 221.303 142.824 221.049 142.938L221.043 142.94C220.494 143.204 219.985 143.545 219.532 143.952C219.456 144.019 219.372 144.075 219.294 144.136C218.209 145.193 217.567 146.623 217.501 148.137L221.057 176.382C221.225 177.731 220.806 179.086 219.898 180.1C218.995 181.111 217.674 181.623 216.33 181.662H216.327C215.584 181.662 198.704 181.899 190.711 201.88C190.247 203.035 189.343 203.959 188.199 204.449C187.055 204.94 185.764 204.957 184.607 204.498C183.451 204.035 182.526 203.132 182.035 201.988C181.544 200.843 181.527 199.55 181.989 198.394C189.504 179.608 203.49 174.328 211.15 172.848L208.142 148.978C208.118 148.783 208.106 148.587 208.105 148.391C208.105 144.645 209.457 141.205 211.704 138.532V91.8369C211.704 88.3531 209.114 85.3833 205.934 85.2157C204.216 85.1571 202.596 85.7186 201.364 86.8892C200.772 87.4467 200.301 88.1196 199.98 88.8663C199.658 89.613 199.493 90.4177 199.495 91.2307V151.959C199.495 153.204 199 154.398 198.12 155.278C197.239 156.159 196.045 156.653 194.8 156.653C193.555 156.653 192.361 156.159 191.48 155.278C190.6 154.398 190.105 153.204 190.105 151.959V106.753C187.243 114.023 183.11 120.725 177.899 126.547V155.532C177.899 156.777 177.404 157.971 176.524 158.852C175.644 159.732 174.449 160.227 173.204 160.227C171.959 160.227 170.765 159.732 169.884 158.852C169.004 157.971 168.509 156.777 168.509 155.532V135.196C164.715 138.063 160.622 140.511 156.301 142.496V159.102C156.301 160.347 155.806 161.542 154.925 162.422C154.045 163.302 152.851 163.797 151.606 163.797C150.36 163.797 149.166 163.302 148.286 162.422C147.405 161.542 146.911 160.347 146.911 159.102V145.969C142.923 147.106 138.836 147.86 134.705 148.221V204.632C134.705 209.077 135.878 213.472 138.108 217.341L148.472 235.352C148.793 235.887 149.003 236.48 149.092 237.097C149.181 237.713 149.146 238.342 148.989 238.945C148.833 239.548 148.557 240.114 148.18 240.61C147.802 241.105 147.329 241.521 146.789 241.832C146.249 242.143 145.653 242.343 145.035 242.421C144.416 242.499 143.789 242.454 143.188 242.287C142.588 242.12 142.027 241.835 141.538 241.448C141.049 241.062 140.642 240.583 140.34 240.037L130.011 222.101L119.68 240.037C119.378 240.583 118.971 241.062 118.482 241.448C117.993 241.835 117.432 242.12 116.831 242.287C116.231 242.454 115.603 242.499 114.985 242.421C114.367 242.343 113.77 242.143 113.23 241.832C112.69 241.521 112.218 241.105 111.84 240.61C111.462 240.114 111.187 239.548 111.031 238.945C110.874 238.342 110.839 237.713 110.928 237.097C111.016 236.48 111.227 235.887 111.547 235.352L121.918 217.338C124.141 213.473 125.312 209.093 125.315 204.635V148.388C121.198 148.163 117.111 147.549 113.109 146.555V159.105C113.109 160.35 112.614 161.544 111.734 162.425C110.853 163.305 109.659 163.8 108.414 163.8C107.169 163.8 105.975 163.305 105.094 162.425C104.214 161.544 103.719 160.35 103.719 159.105V143.457C99.4234 141.664 95.3308 139.418 91.5105 136.758V155.532C91.5105 156.777 91.0159 157.971 90.1354 158.852C89.255 159.732 88.0608 160.227 86.8156 160.227C85.5704 160.227 84.3763 159.732 83.4958 158.852C82.6153 157.971 82.1207 156.777 82.1207 155.532V128.851C77.1596 123.816 73.0385 118.017 69.9148 111.675V151.961C69.9148 153.207 69.4202 154.401 68.5397 155.281C67.6592 156.162 66.465 156.656 65.2199 156.656C63.9747 156.656 62.7805 156.162 61.9001 155.281C61.0196 154.401 60.525 153.207 60.525 151.961V91.2307C60.5265 90.4177 60.3615 89.6131 60.04 88.8664C59.7186 88.1197 59.2475 87.4468 58.6559 86.8892C57.4267 85.727 55.8594 85.1515 54.0854 85.2157C50.9089 85.3833 48.3163 88.3503 48.3163 91.8369V138.526C50.6415 141.285 51.917 144.777 51.9174 148.385C51.9174 148.584 51.9034 148.776 51.8811 148.972L48.8722 172.842C56.5327 174.323 70.5182 179.603 78.0335 198.388C78.3169 199.101 78.4217 199.872 78.3388 200.634C78.2558 201.397 77.9876 202.127 77.5576 202.762C77.1275 203.397 76.5487 203.917 75.8715 204.277C75.1943 204.637 74.4393 204.826 73.6724 204.828C71.8118 204.828 70.0461 203.71 69.3113 201.875C61.2514 181.723 44.1536 181.567 43.6898 181.656C42.346 181.631 41.0273 181.103 40.125 180.095C39.6765 179.594 39.3408 179.003 39.1408 178.361C38.9407 177.72 38.881 177.043 38.9656 176.376L42.5248 148.131C42.4551 146.617 41.813 145.186 40.7284 144.128C40.6502 144.066 40.5664 144.013 40.4937 143.946C40.0405 143.539 39.5316 143.198 38.9823 142.935L38.9767 142.932C38.7219 142.818 38.4596 142.722 38.1917 142.644C38.0688 142.605 37.9514 142.566 37.8201 142.532C37.5826 142.477 37.334 142.449 37.0882 142.421C36.9177 142.401 36.7501 142.376 36.5769 142.37C35.0543 142.34 33.6658 142.918 32.5036 144.024C31.8246 144.676 31.282 145.456 30.9074 146.319C30.5329 147.183 30.3337 148.112 30.3217 149.053L26.701 185.442C26.7233 192.471 31.6766 201.344 41.0385 210.641L51.6576 221.73C52.2722 222.372 52.6885 223.177 52.8673 224.049L55.4292 236.757C55.6755 237.978 55.4269 239.247 54.7379 240.284C54.0489 241.322 52.9761 242.043 51.7554 242.289C50.5347 242.535 49.2661 242.287 48.2287 241.598C47.1913 240.909 46.4701 239.836 46.2237 238.615L43.9301 227.239L34.3363 217.221C23.083 206.057 17.3335 195.178 17.3335 184.981L20.9542 148.595C20.9319 144.639 22.7897 140.328 26.0221 137.244C28.8661 134.534 32.4505 133.062 36.2109 132.997C36.2836 132.995 36.3534 132.975 36.426 132.975C36.5462 132.975 36.6663 132.989 36.7864 132.995C36.9066 132.995 37.0267 132.986 37.1496 132.992C37.2725 132.997 37.3899 133.022 37.5128 133.031C37.8872 133.056 38.2559 133.095 38.6247 133.148C38.7253 133.162 38.8287 133.162 38.9292 133.182V91.8369C38.9292 83.2964 45.3716 76.2673 53.602 75.8399C56.496 75.6674 59.3791 76.3235 61.9135 77.7312C62.394 76.6808 63.0002 75.6946 63.7043 74.7727C65.3466 61.2339 71.1801 48.5471 80.3886 38.4873C91.3736 26.4211 106.306 18.9087 122.454 17.361C125.036 17.0788 127.335 19.0065 127.62 21.5404C127.628 21.6158 127.614 21.6885 127.62 21.7639C127.673 22.9701 127.267 24.1517 126.482 25.0692C125.697 25.9868 124.593 26.5719 123.393 26.7061C111.873 27.7955 100.972 32.4249 92.1883 39.9584C83.4047 47.4919 77.1689 57.5601 74.3373 68.78C73.4894 72.1368 72.9508 75.5642 72.7281 79.0192C72.6471 80.2568 72.594 81.5028 72.594 82.7628C72.6187 93.8738 75.9358 104.728 82.1263 113.955C87.5635 122.078 95.0023 128.662 103.725 133.073C110.453 136.473 117.798 138.479 125.321 138.97C126.516 139.049 127.718 139.102 128.933 139.104C135.05 139.1 141.126 138.091 146.916 136.118C150.167 135.016 153.31 133.619 156.306 131.944C160.771 129.445 164.877 126.354 168.515 122.755C172.188 119.117 175.347 114.993 177.905 110.499C182.725 102.052 185.264 92.4947 185.272 82.7684C185.272 81.2262 185.185 79.698 185.062 78.1782C184.8 74.9801 184.262 71.8106 183.456 68.7046C181.559 61.3969 178.222 54.5415 173.641 48.5401C169.06 42.5386 163.327 37.512 156.778 33.7547C155.725 33.1585 154.943 32.1779 154.596 31.0182C154.249 29.8586 154.365 28.6097 154.918 27.533C154.946 27.4799 154.96 27.4213 154.987 27.3682C156.259 25.2086 159.214 24.3649 161.422 25.583C178.807 35.4896 190.563 52.7551 193.756 72.1326C194.081 72.3924 194.399 72.6578 194.704 72.9455C196.136 74.3099 197.294 75.9364 198.115 77.7368C200.654 76.3382 203.535 75.6828 206.429 75.8455C214.659 76.2729 221.099 83.302 221.099 91.8425V133.187C221.2 133.171 221.303 133.171 221.403 133.154C221.772 133.101 222.144 133.062 222.515 133.036C222.638 133.028 222.756 133.003 222.879 132.997C222.988 132.995 223.094 133.003 223.203 133.003C223.337 133 223.468 132.983 223.605 132.983C223.703 132.983 223.795 133.006 223.893 133.011C227.675 133.113 231.283 134.625 234.009 137.249C235.609 138.776 236.885 140.61 237.759 142.641C238.634 144.672 239.09 146.858 239.099 149.07L242.667 184.514ZM140.574 27.6392H140.619C140.949 27.6895 141.273 27.7314 141.605 27.7314C143.748 27.7314 145.614 26.2647 146.154 24.2029C146.17 24.1414 146.196 24.0855 146.209 24.0241C146.724 21.4873 145.081 18.9534 142.547 18.4393C140.058 17.9225 137.521 19.6127 137.007 22.0545C136.99 22.1271 136.993 22.1997 136.982 22.2724C136.762 23.4351 137.007 24.6376 137.663 25.6221C138.37 26.6558 139.401 27.3598 140.574 27.6392ZM168.417 77.0356L163.017 80.1255C163.165 81.8366 163.167 83.5573 163.022 85.2688C163.017 85.3107 163.02 85.3526 163.017 85.3973L167.529 87.9787L169.149 88.9063L169.903 89.3365C170.968 89.9466 171.751 90.95 172.084 92.1312C172.417 93.3124 172.273 94.577 171.683 95.6532C171.661 95.6923 171.649 95.737 171.627 95.7761L168.509 101.126L162.151 112.039C161.563 113.051 160.616 113.806 159.497 114.152C158.378 114.498 157.171 114.411 156.113 113.908C155.996 113.852 155.873 113.815 155.761 113.748L148.833 109.781C148.21 110.209 147.564 110.605 146.911 110.988C146.833 111.033 146.763 111.086 146.687 111.131C145.871 111.603 145.039 112.044 144.184 112.444V120.322C144.184 120.939 144.063 121.549 143.828 122.119C143.592 122.689 143.246 123.207 142.81 123.643C142.374 124.079 141.857 124.425 141.287 124.661C140.718 124.897 140.107 125.018 139.491 125.018H120.535C119.918 125.018 119.308 124.897 118.738 124.661C118.168 124.425 117.651 124.079 117.215 123.643C116.779 123.207 116.434 122.689 116.198 122.119C115.962 121.549 115.841 120.939 115.841 120.322V112.444C114.989 112.042 114.154 111.604 113.338 111.131C113.263 111.086 113.19 111.033 113.115 110.988C112.46 110.609 111.819 110.206 111.193 109.781L104.267 113.748C104.152 113.815 104.029 113.852 103.912 113.908C102.855 114.41 101.647 114.497 100.529 114.151C99.4103 113.805 98.463 113.051 97.8747 112.039L91.5133 101.126L88.3955 95.7761C88.3731 95.737 88.362 95.6923 88.3396 95.6532C87.7499 94.577 87.6059 93.3124 87.9387 92.1312C88.2715 90.95 89.0544 89.9466 90.1192 89.3365L90.8763 88.9063L92.4967 87.9787L97.0058 85.3973L97.0003 85.2716C96.8547 83.5593 96.8556 81.8377 97.0031 80.1255L91.6027 77.0328L90.1164 76.1835C89.5788 75.8755 89.1073 75.4642 88.7292 74.9732C88.3511 74.4823 88.0738 73.9214 87.9134 73.3229C87.7529 72.7244 87.7124 72.1 87.7942 71.4858C87.8759 70.8716 88.0784 70.2796 88.3899 69.7439L97.8663 53.4814C98.49 52.41 99.5122 51.6289 100.71 51.3085C101.907 50.9882 103.183 51.1547 104.258 51.7717L111.184 55.7388C112.66 54.7277 114.214 53.8373 115.833 53.0763V45.1979C115.833 44.5813 115.954 43.9707 116.189 43.401C116.425 42.8312 116.771 42.3135 117.207 41.8773C117.643 41.4412 118.16 41.0952 118.73 40.8592C119.299 40.6231 119.91 40.5016 120.526 40.5016H139.482C142.078 40.5016 144.176 42.6025 144.176 45.1979V53.0763C145.799 53.839 147.352 54.7274 148.824 55.7388L155.753 51.7717C156.828 51.1548 158.103 50.9884 159.3 51.3088C160.497 51.6291 161.519 52.4102 162.142 53.4814L171.619 69.7439C171.93 70.2794 172.133 70.8713 172.215 71.4854C172.297 72.0995 172.257 72.7238 172.096 73.3223C171.936 73.9208 171.659 74.4817 171.281 74.9727C170.904 75.4638 170.432 75.8753 169.895 76.1835L168.417 77.0356ZM156.384 103.283L161.137 95.1336L156.303 92.3677L155.61 91.971C154.764 91.4868 154.089 90.751 153.68 89.8658C153.271 88.9807 153.148 87.9901 153.328 87.0317C153.607 85.5621 153.747 84.1234 153.747 82.7572C153.747 81.4749 153.616 80.173 153.375 78.8013C153.356 78.6951 153.35 78.5917 153.331 78.4856C153.152 77.5272 153.275 76.5369 153.684 75.6519C154.093 74.7669 154.767 74.031 155.613 73.5462L161.139 70.3837L156.387 62.2343L150.802 65.4303C149.966 65.911 149.001 66.1217 148.04 66.0337C147.079 65.9457 146.168 65.5633 145.433 64.9386C143.219 63.0628 140.678 61.611 137.937 60.6558C137.02 60.3331 136.225 59.7336 135.662 58.9399C135.1 58.1463 134.797 57.1976 134.797 56.2249V49.8915H125.234V56.2249C125.234 58.2169 123.977 59.9937 122.094 60.653C119.354 61.6099 116.813 63.0626 114.598 64.9386C113.863 65.5644 112.953 65.9476 111.991 66.0356C111.03 66.1236 110.065 65.9122 109.229 65.4303L103.644 62.2343L98.8916 70.3837L104.418 73.5462C105.264 74.0304 105.939 74.7662 106.348 75.6514C106.757 76.5365 106.88 77.5272 106.7 78.4856C106.681 78.5917 106.675 78.6951 106.655 78.8013C106.417 80.1066 106.293 81.4303 106.284 82.7572C106.284 84.1206 106.421 85.5593 106.703 87.0317C106.881 87.99 106.757 88.98 106.348 89.8648C105.939 90.7496 105.266 91.4856 104.42 91.971L103.728 92.3677L98.8944 95.1336L103.647 103.283L103.728 103.235L109.231 100.087C110.069 99.609 111.033 99.3998 111.993 99.4878C112.954 99.5757 113.864 99.9565 114.601 100.579C116.816 102.454 119.357 103.907 122.097 104.864C123.014 105.186 123.81 105.785 124.372 106.578C124.935 107.371 125.237 108.32 125.237 109.292V115.626H134.8V109.292C134.8 107.3 136.057 105.524 137.94 104.864C140.68 103.908 143.221 102.455 145.436 100.579C146.172 99.9558 147.082 99.5745 148.043 99.4866C149.003 99.3986 149.968 99.6082 150.805 100.087L156.309 103.235L156.384 103.283ZM144.184 82.76C144.184 90.5266 137.825 96.8461 130.011 96.8461C122.2 96.8461 115.839 90.5266 115.839 82.76C115.839 74.9934 122.197 68.6767 130.011 68.6767C137.825 68.6767 144.184 74.9934 144.184 82.76ZM134.794 82.76C134.794 80.173 132.649 78.0665 130.011 78.0665C127.374 78.0665 125.228 80.173 125.228 82.76C125.228 85.3498 127.374 87.4563 130.011 87.4563C132.649 87.4563 134.794 85.3498 134.794 82.76Z" fill="#E48600"/>
</svg>
