<svg width="260" height="260" viewBox="0 0 260 260" fill="none" xmlns="http://www.w3.org/2000/svg">
<path d="M243.75 67.0312H231.562V75.1562H243.75C248.219 75.1562 251.875 78.8125 251.875 83.2812V209.219C251.875 213.688 248.219 217.344 243.75 217.344H16.25C11.7812 217.344 8.125 213.688 8.125 209.219V83.2812C8.125 78.8125 11.7812 75.1562 16.25 75.1562H32.5V67.0312H16.25C7.3125 67.0312 0 74.3437 0 83.2812V209.219C0 218.156 7.3125 225.469 16.25 225.469H101.562V233.594H67.0312C64.7969 233.594 62.9688 235.422 62.9688 237.656C62.9688 239.891 64.7969 241.719 67.0312 241.719H192.969C195.203 241.719 197.031 239.891 197.031 237.656C197.031 235.422 195.203 233.594 192.969 233.594H158.438V225.469H243.75C252.688 225.469 260 218.156 260 209.219V83.2812C260 74.3437 252.688 67.0312 243.75 67.0312ZM150.312 233.594H109.688V225.469H150.312V233.594ZM203.125 42.6562H195C192.766 42.6562 190.938 44.4844 190.938 46.7188C190.938 48.9531 192.766 50.7812 195 50.7812H203.125C205.359 50.7812 207.188 48.9531 207.188 46.7188C207.188 44.4844 205.359 42.6562 203.125 42.6562ZM178.75 42.6562H170.625C168.391 42.6562 166.562 44.4844 166.562 46.7188C166.562 48.9531 168.391 50.7812 170.625 50.7812H178.75C180.984 50.7812 182.812 48.9531 182.812 46.7188C182.812 44.4844 180.984 42.6562 178.75 42.6562Z" fill="#E48600"/>
<path d="M105.828 146.047C107.453 147.672 109.891 147.672 111.516 146.047L141.578 115.984L147.875 120.859C149.5 122.078 151.734 122.078 153.156 120.656L189.719 86.125C190.938 84.9062 191.344 83.2812 190.734 81.6562C190.125 80.0312 188.703 79.0156 186.875 79.0156H170.625C168.391 79.0156 166.562 80.8437 166.562 83.0781C166.562 85.3125 168.391 87.1406 170.625 87.1406H176.719L150.109 112.531L143.813 107.656C142.188 106.437 139.953 106.641 138.531 108.062L108.672 137.516L101.359 130.203C99.7344 128.578 97.2969 128.578 95.6719 130.203L67.0312 158.844V95.4687C67.0312 93.2344 65.2031 91.4062 62.9688 91.4062C60.7344 91.4062 58.9062 93.2344 58.9062 95.4687V168.594C58.9062 168.797 58.9062 169.203 58.9062 169.406C58.9062 169.609 58.9063 169.609 59.1094 169.812C59.1094 170.016 59.1094 170.016 59.3125 170.219C59.3125 170.422 59.5156 170.422 59.5156 170.625C59.5156 170.625 59.5156 170.828 59.7187 170.828C59.9219 171.234 60.3281 171.641 60.9375 172.047C60.9375 172.047 61.1406 172.25 61.3438 172.25C61.5469 172.25 61.5469 172.453 61.75 172.453C61.9531 172.453 61.9531 172.453 62.1563 172.656C62.3594 172.656 62.3594 172.656 62.5625 172.859C62.7656 172.859 63.1719 172.859 63.375 172.859H139.547C138.937 170.828 138.531 168.797 138.531 166.766V164.734H72.7187L98.5156 138.938L105.828 146.047Z" fill="#E48600"/>
<path d="M211.25 26.4062H52.8125C46.1094 26.4062 40.625 31.8906 40.625 38.5938V197.031C40.625 203.734 46.1094 209.219 52.8125 209.219H165.547C163.109 208.203 160.875 206.781 159.047 204.953L155.188 201.094H52.8125C50.5781 201.094 48.75 199.266 48.75 197.031V67.0312H215.312V109.891C215.516 110.094 215.516 110.094 215.719 110.297C216.328 110.297 216.734 110.297 217.344 110.297C219.375 110.297 221.406 110.703 223.438 111.312V38.5938C223.438 31.8906 217.953 26.4062 211.25 26.4062ZM215.312 58.9062H48.75V38.5938C48.75 36.3594 50.5781 34.5312 52.8125 34.5312H211.25C213.484 34.5312 215.312 36.3594 215.312 38.5938V58.9062Z" fill="#E48600"/>
<path d="M233.797 130.203L225.266 121.672C223.234 119.641 220.391 118.422 217.344 118.422C215.516 118.422 213.891 118.828 212.266 119.641C212.062 119.641 211.859 119.437 211.656 119.437C210.234 114.969 205.969 111.719 201.094 111.719H188.906C184.031 111.719 179.766 114.969 178.344 119.437C178.141 119.437 177.938 119.641 177.734 119.641C176.109 118.828 174.484 118.422 172.656 118.422C169.609 118.422 166.969 119.641 164.734 121.672L156.203 130.203C154.172 132.234 152.953 135.078 152.953 138.125C152.953 139.953 153.359 141.578 154.172 143.203C154.172 143.406 153.969 143.609 153.969 143.813C149.5 145.234 146.25 149.5 146.25 154.375V166.562C146.25 171.438 149.5 175.703 153.969 177.125C153.969 177.328 154.172 177.531 154.172 177.734C153.359 179.359 152.953 180.984 152.953 182.812C152.953 185.859 154.172 188.5 156.203 190.734L164.734 199.266C166.766 201.297 169.609 202.516 172.656 202.516C174.484 202.516 176.109 202.109 177.734 201.297C177.938 201.297 178.141 201.5 178.344 201.5C179.766 205.969 184.031 209.219 188.906 209.219H201.094C205.969 209.219 210.234 205.969 211.656 201.5C211.859 201.5 212.062 201.297 212.266 201.297C213.891 202.109 215.516 202.516 217.344 202.516C220.391 202.516 223.031 201.297 225.266 199.266L233.797 190.734C235.828 188.703 237.047 185.859 237.047 182.812C237.047 180.984 236.641 179.359 235.828 177.734C235.828 177.531 236.031 177.328 236.031 177.125C240.5 175.703 243.75 171.438 243.75 166.562V154.375C243.75 149.5 240.5 145.234 236.031 143.813C236.031 143.609 235.828 143.406 235.828 143.203C236.641 141.578 237.047 139.953 237.047 138.125C237.047 135.078 235.828 132.437 233.797 130.203ZM235.625 166.562C235.625 168.188 234.203 169.609 232.578 169.609H229.937C229.125 172.859 227.703 176.109 226.078 178.953L227.906 180.781C229.125 182 229.125 183.828 227.906 185.047L219.375 193.578C218.766 194.188 217.953 194.391 217.344 194.391C216.734 194.391 215.719 194.188 215.312 193.578L213.484 191.75C210.641 193.375 207.391 194.797 204.141 195.609V198.25C204.141 199.875 202.719 201.297 201.094 201.297H188.906C187.281 201.297 185.859 199.875 185.859 198.25V195.609C182.609 194.797 179.359 193.375 176.516 191.75L174.688 193.375C174.078 193.984 173.266 194.187 172.656 194.187C171.844 194.187 171.031 193.984 170.625 193.375L162.094 184.844C160.875 183.625 160.875 181.797 162.094 180.578L163.922 178.75C162.297 175.906 160.875 172.656 160.063 169.406H157.422C155.797 169.406 154.375 167.984 154.375 166.359V154.375C154.375 152.75 155.797 151.328 157.422 151.328H160.063C160.875 148.078 162.297 144.828 163.922 141.984L162.094 140.156C160.875 138.937 160.875 137.109 162.094 135.891L170.625 127.359C171.234 126.75 172.047 126.547 172.656 126.547C173.469 126.547 174.281 126.75 174.688 127.359L176.516 129.187C179.359 127.562 182.609 126.141 185.859 125.328V122.688C185.859 121.063 187.281 119.641 188.906 119.641H201.094C202.719 119.641 204.141 121.063 204.141 122.688V125.328C207.391 126.141 210.641 127.562 213.484 129.187L215.312 127.359C215.922 126.75 216.734 126.547 217.344 126.547C217.953 126.547 218.969 126.75 219.375 127.359L227.906 135.891C229.125 137.109 229.125 138.937 227.906 140.156L226.078 141.984C227.703 144.828 229.125 148.078 229.937 151.328H232.578C234.203 151.328 235.625 152.75 235.625 154.375V166.562Z" fill="#E48600"/>
<path d="M195 134.062C180.375 134.062 168.594 145.844 168.594 160.469C168.594 175.094 180.375 186.875 195 186.875C209.625 186.875 221.406 175.094 221.406 160.469C221.406 145.844 209.625 134.062 195 134.062ZM195 178.75C184.844 178.75 176.719 170.625 176.719 160.469C176.719 150.312 184.844 142.188 195 142.188C205.156 142.188 213.281 150.312 213.281 160.469C213.281 170.625 205.156 178.75 195 178.75Z" fill="#E48600"/>
</svg>
