<svg width="260" height="260" viewBox="0 0 260 260" fill="none" xmlns="http://www.w3.org/2000/svg">
<g clip-path="url(#clip0_35_2474)">
<path fill-rule="evenodd" clip-rule="evenodd" d="M140.227 27.7559C138.652 12.0985 128.206 0 115.556 0C102.629 0 92.0047 12.631 90.7938 28.7839H90.679V184.62H90.6461C90.6678 184.959 90.679 185.302 90.679 185.648C90.679 192.46 86.3673 197.984 81.0494 197.984C75.7314 197.984 71.4198 192.46 71.4198 185.648C71.4198 185.302 71.431 184.959 71.4527 184.62H71.4198V111.024C71.4198 93.4243 60.2815 79.1557 46.5432 79.1557C32.8049 79.1557 21.6667 93.4243 21.6667 111.024C21.6667 111.368 21.6707 111.71 21.6795 112.052H21.6667V126.444H0V145.976H33.6989C34.1207 145.977 34.5385 145.871 34.9284 145.665C35.3184 145.459 35.6728 145.157 35.9713 144.775C36.2699 144.393 36.5068 143.94 36.6685 143.441C36.8302 142.942 36.9135 142.407 36.9136 141.867V112.052H36.9465C36.9245 111.71 36.9135 111.367 36.9136 111.024C36.9136 104.211 41.2252 98.6877 46.5432 98.6877C51.8612 98.6877 56.1728 104.211 56.1728 111.024C56.1728 111.37 56.1616 111.712 56.1399 112.052H56.1728V186.067H56.1753C56.3502 203.474 67.4194 217.516 81.0494 217.516C94.7877 217.516 105.926 203.247 105.926 185.648C105.926 184.925 105.907 184.209 105.87 183.497H105.926V32.8959H105.959C105.937 32.5539 105.926 32.211 105.926 31.8679C105.926 25.0554 110.238 19.5319 115.556 19.5319C120.874 19.5319 125.185 25.0554 125.185 31.8679C125.185 32.2143 125.174 32.5567 125.152 32.8959H125.185V261.111H140.432V27.7559H140.227ZM206.21 162.423C205.618 179.351 194.718 192.844 181.358 192.844C167.62 192.844 156.481 178.575 156.481 160.976C156.481 160.773 156.483 160.57 156.486 160.367H156.481V41.1199H171.728V159.948H171.761C171.74 160.287 171.728 160.63 171.728 160.976C171.728 167.789 176.04 173.312 181.358 173.312C186.676 173.312 190.988 167.789 190.988 160.976C190.988 160.63 190.976 160.287 190.955 159.948H190.988V108.968H191.038C191.866 92.3254 202.664 79.1557 215.864 79.1557C229.334 79.1557 240.304 92.8713 240.728 109.996H240.741V120.276H260V139.808H228.709C228.287 139.808 227.869 139.702 227.479 139.495C227.089 139.288 226.735 138.985 226.436 138.603C226.138 138.221 225.901 137.768 225.739 137.268C225.577 136.769 225.494 136.234 225.494 135.693V112.052H225.461C225.483 111.712 225.494 111.37 225.494 111.024C225.494 104.211 221.182 98.6877 215.864 98.6877C210.546 98.6877 206.235 104.211 206.235 111.024C206.235 111.37 206.246 111.712 206.267 112.052H206.235V162.423H206.21Z" fill="#E48600"/>
</g>
<defs>
<clipPath id="clip0_35_2474">
<rect width="260" height="260" fill="white"/>
</clipPath>
</defs>
</svg>
